<svg width="322" height="540" viewBox="0 0 322 540" fill="none" xmlns="http://www.w3.org/2000/svg">
<rect x="0.0291138" width="321" height="540" fill="#DBA419"/>
<rect x="9.02911" y="9" width="303" height="522" rx="16" fill="#FFFEFE"/>
<rect x="23.5291" y="32.5" width="276" height="45" rx="22.5" fill="white" stroke="black"/>
<rect x="90.5" y="460.5" width="140" height="46" rx="23" fill="white" stroke="black"/>
<path d="M139.229 487.406C139.229 487.074 139.176 486.781 139.072 486.527C138.975 486.267 138.799 486.033 138.545 485.824C138.298 485.616 137.952 485.417 137.51 485.229C137.074 485.04 136.52 484.848 135.85 484.652C135.146 484.444 134.512 484.213 133.945 483.959C133.379 483.699 132.894 483.402 132.49 483.07C132.087 482.738 131.777 482.357 131.562 481.928C131.348 481.498 131.24 481.007 131.24 480.453C131.24 479.9 131.354 479.389 131.582 478.92C131.81 478.451 132.135 478.044 132.559 477.699C132.988 477.348 133.499 477.074 134.092 476.879C134.684 476.684 135.345 476.586 136.074 476.586C137.142 476.586 138.047 476.791 138.789 477.201C139.538 477.605 140.107 478.135 140.498 478.793C140.889 479.444 141.084 480.141 141.084 480.883H139.209C139.209 480.349 139.095 479.877 138.867 479.467C138.639 479.05 138.294 478.725 137.832 478.49C137.37 478.249 136.784 478.129 136.074 478.129C135.404 478.129 134.85 478.23 134.414 478.432C133.978 478.633 133.652 478.907 133.438 479.252C133.229 479.597 133.125 479.991 133.125 480.434C133.125 480.733 133.187 481.007 133.311 481.254C133.441 481.495 133.639 481.719 133.906 481.928C134.18 482.136 134.525 482.328 134.941 482.504C135.365 482.68 135.869 482.849 136.455 483.012C137.262 483.24 137.959 483.493 138.545 483.773C139.131 484.053 139.613 484.369 139.99 484.721C140.374 485.066 140.658 485.46 140.84 485.902C141.029 486.339 141.123 486.833 141.123 487.387C141.123 487.966 141.006 488.49 140.771 488.959C140.537 489.428 140.202 489.828 139.766 490.16C139.329 490.492 138.805 490.749 138.193 490.932C137.588 491.107 136.911 491.195 136.162 491.195C135.505 491.195 134.857 491.104 134.219 490.922C133.587 490.74 133.011 490.466 132.49 490.102C131.976 489.737 131.562 489.288 131.25 488.754C130.944 488.214 130.791 487.589 130.791 486.879H132.666C132.666 487.367 132.76 487.787 132.949 488.139C133.138 488.484 133.395 488.77 133.721 488.998C134.053 489.226 134.427 489.395 134.844 489.506C135.267 489.61 135.706 489.662 136.162 489.662C136.82 489.662 137.376 489.571 137.832 489.389C138.288 489.206 138.633 488.946 138.867 488.607C139.108 488.269 139.229 487.868 139.229 487.406ZM149.482 489.193V483.754C149.482 483.337 149.398 482.976 149.229 482.67C149.066 482.357 148.818 482.117 148.486 481.947C148.154 481.778 147.744 481.693 147.256 481.693C146.8 481.693 146.4 481.771 146.055 481.928C145.716 482.084 145.449 482.289 145.254 482.543C145.065 482.797 144.971 483.07 144.971 483.363H143.164C143.164 482.986 143.262 482.611 143.457 482.24C143.652 481.869 143.932 481.534 144.297 481.234C144.668 480.928 145.111 480.688 145.625 480.512C146.146 480.329 146.725 480.238 147.363 480.238C148.132 480.238 148.809 480.368 149.395 480.629C149.987 480.889 150.449 481.283 150.781 481.811C151.12 482.331 151.289 482.986 151.289 483.773V488.695C151.289 489.047 151.318 489.421 151.377 489.818C151.442 490.215 151.536 490.557 151.66 490.844V491H149.775C149.684 490.792 149.613 490.515 149.561 490.17C149.508 489.818 149.482 489.493 149.482 489.193ZM149.795 484.594L149.814 485.863H147.988C147.474 485.863 147.015 485.906 146.611 485.99C146.208 486.068 145.869 486.189 145.596 486.352C145.322 486.514 145.114 486.719 144.971 486.967C144.827 487.208 144.756 487.491 144.756 487.816C144.756 488.148 144.831 488.451 144.98 488.725C145.13 488.998 145.355 489.216 145.654 489.379C145.96 489.535 146.335 489.613 146.777 489.613C147.331 489.613 147.819 489.496 148.242 489.262C148.665 489.027 149.001 488.741 149.248 488.402C149.502 488.064 149.639 487.735 149.658 487.416L150.43 488.285C150.384 488.559 150.26 488.861 150.059 489.193C149.857 489.525 149.587 489.844 149.248 490.15C148.916 490.45 148.519 490.701 148.057 490.902C147.601 491.098 147.087 491.195 146.514 491.195C145.798 491.195 145.169 491.055 144.629 490.775C144.095 490.495 143.678 490.121 143.379 489.652C143.086 489.177 142.939 488.646 142.939 488.061C142.939 487.494 143.05 486.996 143.271 486.566C143.493 486.13 143.812 485.769 144.229 485.482C144.645 485.189 145.146 484.968 145.732 484.818C146.318 484.669 146.973 484.594 147.695 484.594H149.795ZM156.094 476V491H154.277V476H156.094ZM162.207 489.369L165.098 480.434H166.943L163.145 491H161.934L162.207 489.369ZM159.795 480.434L162.773 489.418L162.979 491H161.768L157.939 480.434H159.795ZM174.756 489.193V483.754C174.756 483.337 174.671 482.976 174.502 482.67C174.339 482.357 174.092 482.117 173.76 481.947C173.428 481.778 173.018 481.693 172.529 481.693C172.074 481.693 171.673 481.771 171.328 481.928C170.99 482.084 170.723 482.289 170.527 482.543C170.339 482.797 170.244 483.07 170.244 483.363H168.438C168.438 482.986 168.535 482.611 168.73 482.24C168.926 481.869 169.206 481.534 169.57 481.234C169.941 480.928 170.384 480.688 170.898 480.512C171.419 480.329 171.999 480.238 172.637 480.238C173.405 480.238 174.082 480.368 174.668 480.629C175.26 480.889 175.723 481.283 176.055 481.811C176.393 482.331 176.562 482.986 176.562 483.773V488.695C176.562 489.047 176.592 489.421 176.65 489.818C176.715 490.215 176.81 490.557 176.934 490.844V491H175.049C174.958 490.792 174.886 490.515 174.834 490.17C174.782 489.818 174.756 489.493 174.756 489.193ZM175.068 484.594L175.088 485.863H173.262C172.747 485.863 172.288 485.906 171.885 485.99C171.481 486.068 171.143 486.189 170.869 486.352C170.596 486.514 170.387 486.719 170.244 486.967C170.101 487.208 170.029 487.491 170.029 487.816C170.029 488.148 170.104 488.451 170.254 488.725C170.404 488.998 170.628 489.216 170.928 489.379C171.234 489.535 171.608 489.613 172.051 489.613C172.604 489.613 173.092 489.496 173.516 489.262C173.939 489.027 174.274 488.741 174.521 488.402C174.775 488.064 174.912 487.735 174.932 487.416L175.703 488.285C175.658 488.559 175.534 488.861 175.332 489.193C175.13 489.525 174.86 489.844 174.521 490.15C174.189 490.45 173.792 490.701 173.33 490.902C172.874 491.098 172.36 491.195 171.787 491.195C171.071 491.195 170.443 491.055 169.902 490.775C169.368 490.495 168.952 490.121 168.652 489.652C168.359 489.177 168.213 488.646 168.213 488.061C168.213 487.494 168.324 486.996 168.545 486.566C168.766 486.13 169.085 485.769 169.502 485.482C169.919 485.189 170.42 484.968 171.006 484.818C171.592 484.669 172.246 484.594 172.969 484.594H175.068ZM181.211 482.094V491H179.404V480.434H181.162L181.211 482.094ZM184.512 480.375L184.502 482.055C184.352 482.022 184.209 482.003 184.072 481.996C183.942 481.983 183.792 481.977 183.623 481.977C183.206 481.977 182.839 482.042 182.52 482.172C182.201 482.302 181.93 482.484 181.709 482.719C181.488 482.953 181.312 483.233 181.182 483.559C181.058 483.878 180.977 484.229 180.938 484.613L180.43 484.906C180.43 484.268 180.492 483.669 180.615 483.109C180.745 482.549 180.944 482.055 181.211 481.625C181.478 481.189 181.816 480.85 182.227 480.609C182.643 480.362 183.138 480.238 183.711 480.238C183.841 480.238 183.991 480.255 184.16 480.287C184.329 480.313 184.447 480.342 184.512 480.375Z" fill="black"/>
<path d="M56.2402 60.8418L60.4297 48.7812H62.4707L57.207 63H55.752L56.2402 60.8418ZM52.3242 48.7812L56.4746 60.8418L56.9922 63H55.5371L50.2832 48.7812H52.3242ZM69.8926 61.1934V55.7539C69.8926 55.3372 69.8079 54.9759 69.6387 54.6699C69.4759 54.3574 69.2285 54.1165 68.8965 53.9473C68.5645 53.778 68.1543 53.6934 67.666 53.6934C67.2103 53.6934 66.8099 53.7715 66.4648 53.9277C66.1263 54.084 65.8594 54.2891 65.6641 54.543C65.4753 54.7969 65.3809 55.0703 65.3809 55.3633H63.5742C63.5742 54.9857 63.6719 54.6113 63.8672 54.2402C64.0625 53.8691 64.3424 53.5339 64.707 53.2344C65.0781 52.9284 65.5208 52.6875 66.0352 52.5117C66.556 52.3294 67.1354 52.2383 67.7734 52.2383C68.5417 52.2383 69.2188 52.3685 69.8047 52.6289C70.3971 52.8893 70.8594 53.2832 71.1914 53.8105C71.5299 54.3314 71.6992 54.9857 71.6992 55.7734V60.6953C71.6992 61.0469 71.7285 61.4212 71.7871 61.8184C71.8522 62.2155 71.9466 62.5573 72.0703 62.8438V63H70.1855C70.0944 62.7917 70.0228 62.515 69.9707 62.1699C69.9186 61.8184 69.8926 61.4928 69.8926 61.1934ZM70.2051 56.5938L70.2246 57.8633H68.3984C67.8841 57.8633 67.4251 57.9056 67.0215 57.9902C66.6178 58.0684 66.2793 58.1888 66.0059 58.3516C65.7324 58.5143 65.5241 58.7194 65.3809 58.9668C65.2376 59.2077 65.166 59.4909 65.166 59.8164C65.166 60.1484 65.2409 60.4512 65.3906 60.7246C65.5404 60.998 65.765 61.2161 66.0645 61.3789C66.3704 61.5352 66.7448 61.6133 67.1875 61.6133C67.7409 61.6133 68.2292 61.4961 68.6523 61.2617C69.0755 61.0273 69.4108 60.7409 69.6582 60.4023C69.9121 60.0638 70.0488 59.735 70.0684 59.416L70.8398 60.2852C70.7943 60.5586 70.6706 60.8613 70.4688 61.1934C70.2669 61.5254 69.9967 61.8444 69.6582 62.1504C69.3262 62.4499 68.929 62.7005 68.4668 62.9023C68.0111 63.0977 67.4967 63.1953 66.9238 63.1953C66.2077 63.1953 65.5794 63.0553 65.0391 62.7754C64.5052 62.4954 64.0885 62.1211 63.7891 61.6523C63.4961 61.1771 63.3496 60.6465 63.3496 60.0605C63.3496 59.4941 63.4603 58.9961 63.6816 58.5664C63.903 58.1302 64.222 57.7689 64.6387 57.4824C65.0553 57.1895 65.5566 56.9681 66.1426 56.8184C66.7285 56.6686 67.3828 56.5938 68.1055 56.5938H70.2051ZM78.7695 61.7109C79.1992 61.7109 79.5964 61.623 79.9609 61.4473C80.3255 61.2715 80.625 61.0306 80.8594 60.7246C81.0938 60.4121 81.2272 60.0573 81.2598 59.6602H82.9785C82.946 60.2852 82.7344 60.8678 82.3438 61.4082C81.9596 61.9421 81.4551 62.375 80.8301 62.707C80.2051 63.0326 79.5182 63.1953 78.7695 63.1953C77.9753 63.1953 77.2819 63.0553 76.6895 62.7754C76.1035 62.4954 75.6152 62.1113 75.2246 61.623C74.8405 61.1348 74.5508 60.5749 74.3555 59.9434C74.1667 59.3053 74.0723 58.6315 74.0723 57.9219V57.5117C74.0723 56.8021 74.1667 56.1315 74.3555 55.5C74.5508 54.862 74.8405 54.2988 75.2246 53.8105C75.6152 53.3223 76.1035 52.9382 76.6895 52.6582C77.2819 52.3783 77.9753 52.2383 78.7695 52.2383C79.5964 52.2383 80.319 52.4076 80.9375 52.7461C81.556 53.0781 82.041 53.5339 82.3926 54.1133C82.7507 54.6862 82.946 55.3372 82.9785 56.0664H81.2598C81.2272 55.6302 81.1035 55.2363 80.8887 54.8848C80.6803 54.5332 80.3939 54.2533 80.0293 54.0449C79.6712 53.8301 79.2513 53.7227 78.7695 53.7227C78.2161 53.7227 77.7507 53.8333 77.373 54.0547C77.002 54.2695 76.7057 54.5625 76.4844 54.9336C76.2695 55.2982 76.1133 55.7051 76.0156 56.1543C75.9245 56.597 75.8789 57.0495 75.8789 57.5117V57.9219C75.8789 58.3841 75.9245 58.8398 76.0156 59.2891C76.1068 59.7383 76.2598 60.1452 76.4746 60.5098C76.696 60.8743 76.9922 61.1673 77.3633 61.3887C77.7409 61.6035 78.2096 61.7109 78.7695 61.7109ZM86.9727 52.4336V63H85.1562V52.4336H86.9727ZM85.0195 49.6309C85.0195 49.3379 85.1074 49.0905 85.2832 48.8887C85.4655 48.6868 85.7324 48.5859 86.084 48.5859C86.429 48.5859 86.6927 48.6868 86.875 48.8887C87.0638 49.0905 87.1582 49.3379 87.1582 49.6309C87.1582 49.9108 87.0638 50.1517 86.875 50.3535C86.6927 50.5488 86.429 50.6465 86.084 50.6465C85.7324 50.6465 85.4655 50.5488 85.2832 50.3535C85.1074 50.1517 85.0195 49.9108 85.0195 49.6309ZM91.6797 54.6895V63H89.873V52.4336H91.582L91.6797 54.6895ZM91.25 57.3164L90.498 57.2871C90.5046 56.5645 90.612 55.8971 90.8203 55.2852C91.0286 54.6667 91.3216 54.1296 91.6992 53.6738C92.0768 53.2181 92.526 52.8665 93.0469 52.6191C93.5742 52.3652 94.1569 52.2383 94.7949 52.2383C95.3158 52.2383 95.7845 52.3099 96.2012 52.4531C96.6178 52.5898 96.9727 52.8112 97.2656 53.1172C97.5651 53.4232 97.793 53.8203 97.9492 54.3086C98.1055 54.7904 98.1836 55.3796 98.1836 56.0762V63H96.3672V56.0566C96.3672 55.5033 96.2858 55.0605 96.123 54.7285C95.9603 54.39 95.7227 54.1458 95.4102 53.9961C95.0977 53.8398 94.7135 53.7617 94.2578 53.7617C93.8086 53.7617 93.3984 53.8561 93.0273 54.0449C92.6628 54.2337 92.347 54.4941 92.0801 54.8262C91.8197 55.1582 91.6146 55.5391 91.4648 55.9688C91.3216 56.3919 91.25 56.8411 91.25 57.3164ZM107.158 61.1934V55.7539C107.158 55.3372 107.074 54.9759 106.904 54.6699C106.742 54.3574 106.494 54.1165 106.162 53.9473C105.83 53.778 105.42 53.6934 104.932 53.6934C104.476 53.6934 104.076 53.7715 103.73 53.9277C103.392 54.084 103.125 54.2891 102.93 54.543C102.741 54.7969 102.646 55.0703 102.646 55.3633H100.84C100.84 54.9857 100.938 54.6113 101.133 54.2402C101.328 53.8691 101.608 53.5339 101.973 53.2344C102.344 52.9284 102.786 52.6875 103.301 52.5117C103.822 52.3294 104.401 52.2383 105.039 52.2383C105.807 52.2383 106.484 52.3685 107.07 52.6289C107.663 52.8893 108.125 53.2832 108.457 53.8105C108.796 54.3314 108.965 54.9857 108.965 55.7734V60.6953C108.965 61.0469 108.994 61.4212 109.053 61.8184C109.118 62.2155 109.212 62.5573 109.336 62.8438V63H107.451C107.36 62.7917 107.288 62.515 107.236 62.1699C107.184 61.8184 107.158 61.4928 107.158 61.1934ZM107.471 56.5938L107.49 57.8633H105.664C105.15 57.8633 104.691 57.9056 104.287 57.9902C103.883 58.0684 103.545 58.1888 103.271 58.3516C102.998 58.5143 102.79 58.7194 102.646 58.9668C102.503 59.2077 102.432 59.4909 102.432 59.8164C102.432 60.1484 102.507 60.4512 102.656 60.7246C102.806 60.998 103.031 61.2161 103.33 61.3789C103.636 61.5352 104.01 61.6133 104.453 61.6133C105.007 61.6133 105.495 61.4961 105.918 61.2617C106.341 61.0273 106.676 60.7409 106.924 60.4023C107.178 60.0638 107.314 59.735 107.334 59.416L108.105 60.2852C108.06 60.5586 107.936 60.8613 107.734 61.1934C107.533 61.5254 107.262 61.8444 106.924 62.1504C106.592 62.4499 106.195 62.7005 105.732 62.9023C105.277 63.0977 104.762 63.1953 104.189 63.1953C103.473 63.1953 102.845 63.0553 102.305 62.7754C101.771 62.4954 101.354 62.1211 101.055 61.6523C100.762 61.1771 100.615 60.6465 100.615 60.0605C100.615 59.4941 100.726 58.9961 100.947 58.5664C101.169 58.1302 101.488 57.7689 101.904 57.4824C102.321 57.1895 102.822 56.9681 103.408 56.8184C103.994 56.6686 104.648 56.5938 105.371 56.5938H107.471ZM117.959 60.1973C117.959 59.9368 117.9 59.696 117.783 59.4746C117.673 59.2467 117.441 59.0417 117.09 58.8594C116.745 58.6706 116.224 58.5078 115.527 58.3711C114.941 58.2474 114.411 58.1009 113.936 57.9316C113.467 57.7624 113.066 57.5573 112.734 57.3164C112.409 57.0755 112.158 56.7923 111.982 56.4668C111.807 56.1413 111.719 55.7604 111.719 55.3242C111.719 54.9076 111.81 54.5137 111.992 54.1426C112.181 53.7715 112.445 53.4427 112.783 53.1562C113.128 52.8698 113.542 52.6452 114.023 52.4824C114.505 52.3197 115.042 52.2383 115.635 52.2383C116.481 52.2383 117.204 52.388 117.803 52.6875C118.402 52.987 118.861 53.3874 119.18 53.8887C119.499 54.3835 119.658 54.9336 119.658 55.5391H117.852C117.852 55.2461 117.764 54.9629 117.588 54.6895C117.419 54.4095 117.168 54.1784 116.836 53.9961C116.51 53.8138 116.11 53.7227 115.635 53.7227C115.133 53.7227 114.727 53.8008 114.414 53.957C114.108 54.1068 113.883 54.2988 113.74 54.5332C113.604 54.7676 113.535 55.015 113.535 55.2754C113.535 55.4707 113.568 55.6465 113.633 55.8027C113.704 55.9525 113.828 56.0924 114.004 56.2227C114.18 56.3464 114.427 56.4635 114.746 56.5742C115.065 56.6849 115.472 56.7956 115.967 56.9062C116.833 57.1016 117.546 57.3359 118.105 57.6094C118.665 57.8828 119.082 58.2181 119.355 58.6152C119.629 59.0124 119.766 59.4941 119.766 60.0605C119.766 60.5228 119.668 60.946 119.473 61.3301C119.284 61.7142 119.007 62.0462 118.643 62.3262C118.285 62.5996 117.855 62.8145 117.354 62.9707C116.859 63.1204 116.302 63.1953 115.684 63.1953C114.753 63.1953 113.965 63.0293 113.32 62.6973C112.676 62.3652 112.188 61.9355 111.855 61.4082C111.523 60.8809 111.357 60.3242 111.357 59.7383H113.174C113.2 60.2331 113.343 60.627 113.604 60.9199C113.864 61.2064 114.183 61.4115 114.561 61.5352C114.938 61.6523 115.312 61.7109 115.684 61.7109C116.178 61.7109 116.592 61.6458 116.924 61.5156C117.262 61.3854 117.52 61.2064 117.695 60.9785C117.871 60.7507 117.959 60.4902 117.959 60.1973Z" fill="black"/>
<path d="M43.498 115H40.5293L40.5488 113.467H43.498C44.5137 113.467 45.36 113.255 46.0371 112.832C46.7142 112.402 47.222 111.803 47.5605 111.035C47.9056 110.26 48.0781 109.355 48.0781 108.32V107.451C48.0781 106.637 47.9805 105.915 47.7852 105.283C47.5898 104.645 47.3034 104.108 46.9258 103.672C46.5482 103.229 46.0859 102.894 45.5391 102.666C44.9987 102.438 44.377 102.324 43.6738 102.324H40.4707V100.781H43.6738C44.6048 100.781 45.4544 100.938 46.2227 101.25C46.9909 101.556 47.6517 102.002 48.2051 102.588C48.765 103.167 49.1947 103.87 49.4941 104.697C49.7936 105.518 49.9434 106.442 49.9434 107.471V108.32C49.9434 109.349 49.7936 110.277 49.4941 111.104C49.1947 111.924 48.7617 112.624 48.1953 113.203C47.6354 113.783 46.9583 114.229 46.1641 114.541C45.3763 114.847 44.4876 115 43.498 115ZM41.5352 100.781V115H39.6504V100.781H41.5352ZM56.623 115H53.6543L53.6738 113.467H56.623C57.6387 113.467 58.485 113.255 59.1621 112.832C59.8392 112.402 60.347 111.803 60.6855 111.035C61.0306 110.26 61.2031 109.355 61.2031 108.32V107.451C61.2031 106.637 61.1055 105.915 60.9102 105.283C60.7148 104.645 60.4284 104.108 60.0508 103.672C59.6732 103.229 59.2109 102.894 58.6641 102.666C58.1237 102.438 57.502 102.324 56.7988 102.324H53.5957V100.781H56.7988C57.7298 100.781 58.5794 100.938 59.3477 101.25C60.1159 101.556 60.7767 102.002 61.3301 102.588C61.89 103.167 62.3197 103.87 62.6191 104.697C62.9186 105.518 63.0684 106.442 63.0684 107.471V108.32C63.0684 109.349 62.9186 110.277 62.6191 111.104C62.3197 111.924 61.8867 112.624 61.3203 113.203C60.7604 113.783 60.0833 114.229 59.2891 114.541C58.5013 114.847 57.6126 115 56.623 115ZM54.6602 100.781V115H52.7754V100.781H54.6602ZM71.916 100.781L65.9883 116.221H64.4355L70.373 100.781H71.916ZM74.7578 100.781H76.584L81.2422 112.373L85.8906 100.781H87.7266L81.9453 115H80.5195L74.7578 100.781ZM74.1621 100.781H75.7734L76.0371 109.453V115H74.1621V100.781ZM86.7012 100.781H88.3125V115H86.4375V109.453L86.7012 100.781ZM92.2188 100.781H94.0449L98.7031 112.373L103.352 100.781H105.188L99.4062 115H97.9805L92.2188 100.781ZM91.623 100.781H93.2344L93.498 109.453V115H91.623V100.781ZM104.162 100.781H105.773V115H103.898V109.453L104.162 100.781ZM115.1 100.781L109.172 116.221H107.619L113.557 100.781H115.1ZM122.609 102.041L117.902 115H115.979L121.398 100.781H122.639L122.609 102.041ZM126.555 115L121.838 102.041L121.809 100.781H123.049L128.488 115H126.555ZM126.311 109.736V111.279H118.322V109.736H126.311ZM135.656 102.041L130.949 115H129.025L134.445 100.781H135.686L135.656 102.041ZM139.602 115L134.885 102.041L134.855 100.781H136.096L141.535 115H139.602ZM139.357 109.736V111.279H131.369V109.736H139.357ZM148.703 102.041L143.996 115H142.072L147.492 100.781H148.732L148.703 102.041ZM152.648 115L147.932 102.041L147.902 100.781H149.143L154.582 115H152.648ZM152.404 109.736V111.279H144.416V109.736H152.404ZM161.75 102.041L157.043 115H155.119L160.539 100.781H161.779L161.75 102.041ZM165.695 115L160.979 102.041L160.949 100.781H162.189L167.629 115H165.695ZM165.451 109.736V111.279H157.463V109.736H165.451Z" fill="black"/>
<path d="M216.938 106.895V108.428H209.242V106.895H216.938ZM209.535 100.781V115H207.65V100.781H209.535ZM218.578 100.781V115H216.703V100.781H218.578ZM232.875 107.441V108.34C232.875 109.408 232.742 110.365 232.475 111.211C232.208 112.057 231.824 112.777 231.322 113.369C230.821 113.962 230.219 114.414 229.516 114.727C228.819 115.039 228.038 115.195 227.172 115.195C226.332 115.195 225.561 115.039 224.857 114.727C224.161 114.414 223.555 113.962 223.041 113.369C222.533 112.777 222.139 112.057 221.859 111.211C221.579 110.365 221.439 109.408 221.439 108.34V107.441C221.439 106.374 221.576 105.42 221.85 104.58C222.13 103.734 222.523 103.014 223.031 102.422C223.539 101.823 224.141 101.367 224.838 101.055C225.541 100.742 226.312 100.586 227.152 100.586C228.018 100.586 228.799 100.742 229.496 101.055C230.199 101.367 230.801 101.823 231.303 102.422C231.811 103.014 232.198 103.734 232.465 104.58C232.738 105.42 232.875 106.374 232.875 107.441ZM231.01 108.34V107.422C231.01 106.576 230.922 105.827 230.746 105.176C230.577 104.525 230.326 103.978 229.994 103.535C229.662 103.092 229.255 102.757 228.773 102.529C228.298 102.301 227.758 102.188 227.152 102.188C226.566 102.188 226.036 102.301 225.561 102.529C225.092 102.757 224.688 103.092 224.35 103.535C224.018 103.978 223.76 104.525 223.578 105.176C223.396 105.827 223.305 106.576 223.305 107.422V108.34C223.305 109.193 223.396 109.948 223.578 110.605C223.76 111.257 224.021 111.807 224.359 112.256C224.704 112.699 225.111 113.034 225.58 113.262C226.055 113.49 226.586 113.604 227.172 113.604C227.784 113.604 228.327 113.49 228.803 113.262C229.278 113.034 229.678 112.699 230.004 112.256C230.336 111.807 230.587 111.257 230.756 110.605C230.925 109.948 231.01 109.193 231.01 108.34ZM235.697 100.781H240.404C241.472 100.781 242.374 100.944 243.109 101.27C243.852 101.595 244.415 102.077 244.799 102.715C245.189 103.346 245.385 104.124 245.385 105.049C245.385 105.7 245.251 106.296 244.984 106.836C244.724 107.37 244.346 107.826 243.852 108.203C243.363 108.574 242.777 108.851 242.094 109.033L241.566 109.238H237.143L237.123 107.705H240.463C241.14 107.705 241.703 107.588 242.152 107.354C242.602 107.113 242.94 106.79 243.168 106.387C243.396 105.983 243.51 105.537 243.51 105.049C243.51 104.502 243.402 104.023 243.188 103.613C242.973 103.203 242.634 102.887 242.172 102.666C241.716 102.438 241.127 102.324 240.404 102.324H237.582V115H235.697V100.781ZM244.008 115L240.551 108.555L242.514 108.545L246.02 114.883V115H244.008ZM253.285 102.041L248.578 115H246.654L252.074 100.781H253.314L253.285 102.041ZM257.23 115L252.514 102.041L252.484 100.781H253.725L259.164 115H257.23ZM256.986 109.736V111.279H248.998V109.736H256.986Z" fill="black"/>
<line x1="9.02911" y1="145.5" x2="312.029" y2="145.5" stroke="#DBA419"/>
<line x1="9.02911" y1="431.5" x2="312.029" y2="431.5" stroke="#DBA419"/>
</svg>
