<svg width="321" height="540" viewBox="0 0 321 540" fill="none" xmlns="http://www.w3.org/2000/svg">
<rect width="321" height="540" fill="#DBA419"/>
<rect x="9" y="10" width="303" height="521" rx="16" fill="#FFFEFE"/>
<path d="M298.5 484C298.5 500.27 285.091 513.5 268.5 513.5C251.909 513.5 238.5 500.27 238.5 484C238.5 467.73 251.909 454.5 268.5 454.5C285.091 454.5 298.5 467.73 298.5 484Z" fill="white" stroke="#DBA419" stroke-width="3"/>
<circle cx="68" cy="137" r="22.5" fill="white" stroke="#DBA419" stroke-width="3"/>
<circle cx="68" cy="210" r="22.5" fill="white" stroke="#DBA419" stroke-width="3"/>
<circle cx="68" cy="283" r="22.5" fill="white" stroke="#DBA419" stroke-width="3"/>
<circle cx="68" cy="356" r="22.5" fill="white" stroke="#DBA419" stroke-width="3"/>
<circle cx="68" cy="429" r="22.5" fill="white" stroke="#DBA419" stroke-width="3"/>
<path d="M116.895 140.424H113.096V138.891H116.895C117.63 138.891 118.226 138.773 118.682 138.539C119.137 138.305 119.469 137.979 119.678 137.562C119.893 137.146 120 136.671 120 136.137C120 135.648 119.893 135.189 119.678 134.76C119.469 134.33 119.137 133.985 118.682 133.725C118.226 133.458 117.63 133.324 116.895 133.324H113.535V146H111.65V131.781H116.895C117.969 131.781 118.877 131.967 119.619 132.338C120.361 132.709 120.924 133.223 121.309 133.881C121.693 134.532 121.885 135.277 121.885 136.117C121.885 137.029 121.693 137.807 121.309 138.451C120.924 139.096 120.361 139.587 119.619 139.926C118.877 140.258 117.969 140.424 116.895 140.424ZM128.242 146.195C127.507 146.195 126.839 146.072 126.24 145.824C125.648 145.57 125.137 145.215 124.707 144.76C124.284 144.304 123.958 143.764 123.73 143.139C123.503 142.514 123.389 141.83 123.389 141.088V140.678C123.389 139.818 123.516 139.053 123.77 138.383C124.023 137.706 124.368 137.133 124.805 136.664C125.241 136.195 125.736 135.84 126.289 135.6C126.842 135.359 127.415 135.238 128.008 135.238C128.763 135.238 129.414 135.368 129.961 135.629C130.514 135.889 130.967 136.254 131.318 136.723C131.67 137.185 131.93 137.732 132.1 138.363C132.269 138.988 132.354 139.672 132.354 140.414V141.225H124.463V139.75H130.547V139.613C130.521 139.145 130.423 138.689 130.254 138.246C130.091 137.803 129.831 137.439 129.473 137.152C129.115 136.866 128.626 136.723 128.008 136.723C127.598 136.723 127.22 136.811 126.875 136.986C126.53 137.156 126.234 137.41 125.986 137.748C125.739 138.087 125.547 138.5 125.41 138.988C125.273 139.477 125.205 140.04 125.205 140.678V141.088C125.205 141.589 125.273 142.061 125.41 142.504C125.553 142.94 125.758 143.324 126.025 143.656C126.299 143.988 126.628 144.249 127.012 144.438C127.402 144.626 127.845 144.721 128.34 144.721C128.978 144.721 129.518 144.59 129.961 144.33C130.404 144.07 130.791 143.721 131.123 143.285L132.217 144.154C131.989 144.499 131.699 144.828 131.348 145.141C130.996 145.453 130.563 145.707 130.049 145.902C129.541 146.098 128.939 146.195 128.242 146.195ZM138.887 135.434V136.82H133.174V135.434H138.887ZM135.107 132.865H136.914V143.383C136.914 143.741 136.969 144.011 137.08 144.193C137.191 144.376 137.334 144.496 137.51 144.555C137.686 144.613 137.874 144.643 138.076 144.643C138.226 144.643 138.382 144.63 138.545 144.604C138.714 144.571 138.841 144.545 138.926 144.525L138.936 146C138.792 146.046 138.604 146.088 138.369 146.127C138.141 146.173 137.865 146.195 137.539 146.195C137.096 146.195 136.689 146.107 136.318 145.932C135.947 145.756 135.651 145.463 135.43 145.053C135.215 144.636 135.107 144.076 135.107 143.373V132.865ZM151.709 131.703V146H149.902V133.959L146.26 135.287V133.656L151.426 131.703H151.709ZM158.857 143.852V145.307C158.857 145.899 158.708 146.524 158.408 147.182C158.109 147.846 157.689 148.399 157.148 148.842L156.123 148.129C156.331 147.842 156.507 147.549 156.65 147.25C156.794 146.957 156.901 146.651 156.973 146.332C157.051 146.02 157.09 145.688 157.09 145.336V143.852H158.857ZM168.086 135.434V146H166.27V135.434H168.086ZM166.133 132.631C166.133 132.338 166.221 132.09 166.396 131.889C166.579 131.687 166.846 131.586 167.197 131.586C167.542 131.586 167.806 131.687 167.988 131.889C168.177 132.09 168.271 132.338 168.271 132.631C168.271 132.911 168.177 133.152 167.988 133.354C167.806 133.549 167.542 133.646 167.197 133.646C166.846 133.646 166.579 133.549 166.396 133.354C166.221 133.152 166.133 132.911 166.133 132.631ZM177.646 143.949V131H179.463V146H177.803L177.646 143.949ZM170.537 140.834V140.629C170.537 139.822 170.635 139.089 170.83 138.432C171.032 137.768 171.315 137.198 171.68 136.723C172.051 136.247 172.49 135.883 172.998 135.629C173.512 135.368 174.085 135.238 174.717 135.238C175.381 135.238 175.96 135.355 176.455 135.59C176.956 135.818 177.38 136.153 177.725 136.596C178.076 137.032 178.353 137.559 178.555 138.178C178.757 138.796 178.896 139.496 178.975 140.277V141.176C178.903 141.951 178.763 142.647 178.555 143.266C178.353 143.884 178.076 144.411 177.725 144.848C177.38 145.284 176.956 145.619 176.455 145.854C175.954 146.081 175.368 146.195 174.697 146.195C174.079 146.195 173.512 146.062 172.998 145.795C172.49 145.528 172.051 145.154 171.68 144.672C171.315 144.19 171.032 143.624 170.83 142.973C170.635 142.315 170.537 141.602 170.537 140.834ZM172.354 140.629V140.834C172.354 141.361 172.406 141.856 172.51 142.318C172.62 142.781 172.79 143.188 173.018 143.539C173.245 143.891 173.535 144.167 173.887 144.369C174.238 144.564 174.658 144.662 175.146 144.662C175.745 144.662 176.237 144.535 176.621 144.281C177.012 144.027 177.324 143.692 177.559 143.275C177.793 142.859 177.975 142.406 178.105 141.918V139.564C178.027 139.206 177.913 138.861 177.764 138.529C177.62 138.191 177.432 137.891 177.197 137.631C176.969 137.364 176.686 137.152 176.348 136.996C176.016 136.84 175.622 136.762 175.166 136.762C174.671 136.762 174.245 136.866 173.887 137.074C173.535 137.276 173.245 137.556 173.018 137.914C172.79 138.266 172.62 138.676 172.51 139.145C172.406 139.607 172.354 140.102 172.354 140.629ZM188.506 144.193V138.754C188.506 138.337 188.421 137.976 188.252 137.67C188.089 137.357 187.842 137.117 187.51 136.947C187.178 136.778 186.768 136.693 186.279 136.693C185.824 136.693 185.423 136.771 185.078 136.928C184.74 137.084 184.473 137.289 184.277 137.543C184.089 137.797 183.994 138.07 183.994 138.363H182.188C182.188 137.986 182.285 137.611 182.48 137.24C182.676 136.869 182.956 136.534 183.32 136.234C183.691 135.928 184.134 135.688 184.648 135.512C185.169 135.329 185.749 135.238 186.387 135.238C187.155 135.238 187.832 135.368 188.418 135.629C189.01 135.889 189.473 136.283 189.805 136.811C190.143 137.331 190.312 137.986 190.312 138.773V143.695C190.312 144.047 190.342 144.421 190.4 144.818C190.465 145.215 190.56 145.557 190.684 145.844V146H188.799C188.708 145.792 188.636 145.515 188.584 145.17C188.532 144.818 188.506 144.493 188.506 144.193ZM188.818 139.594L188.838 140.863H187.012C186.497 140.863 186.038 140.906 185.635 140.99C185.231 141.068 184.893 141.189 184.619 141.352C184.346 141.514 184.137 141.719 183.994 141.967C183.851 142.208 183.779 142.491 183.779 142.816C183.779 143.148 183.854 143.451 184.004 143.725C184.154 143.998 184.378 144.216 184.678 144.379C184.984 144.535 185.358 144.613 185.801 144.613C186.354 144.613 186.842 144.496 187.266 144.262C187.689 144.027 188.024 143.741 188.271 143.402C188.525 143.064 188.662 142.735 188.682 142.416L189.453 143.285C189.408 143.559 189.284 143.861 189.082 144.193C188.88 144.525 188.61 144.844 188.271 145.15C187.939 145.45 187.542 145.701 187.08 145.902C186.624 146.098 186.11 146.195 185.537 146.195C184.821 146.195 184.193 146.055 183.652 145.775C183.118 145.495 182.702 145.121 182.402 144.652C182.109 144.177 181.963 143.646 181.963 143.061C181.963 142.494 182.074 141.996 182.295 141.566C182.516 141.13 182.835 140.769 183.252 140.482C183.669 140.189 184.17 139.968 184.756 139.818C185.342 139.669 185.996 139.594 186.719 139.594H188.818ZM199.814 143.949V131H201.631V146H199.971L199.814 143.949ZM192.705 140.834V140.629C192.705 139.822 192.803 139.089 192.998 138.432C193.2 137.768 193.483 137.198 193.848 136.723C194.219 136.247 194.658 135.883 195.166 135.629C195.68 135.368 196.253 135.238 196.885 135.238C197.549 135.238 198.128 135.355 198.623 135.59C199.124 135.818 199.548 136.153 199.893 136.596C200.244 137.032 200.521 137.559 200.723 138.178C200.924 138.796 201.064 139.496 201.143 140.277V141.176C201.071 141.951 200.931 142.647 200.723 143.266C200.521 143.884 200.244 144.411 199.893 144.848C199.548 145.284 199.124 145.619 198.623 145.854C198.122 146.081 197.536 146.195 196.865 146.195C196.247 146.195 195.68 146.062 195.166 145.795C194.658 145.528 194.219 145.154 193.848 144.672C193.483 144.19 193.2 143.624 192.998 142.973C192.803 142.315 192.705 141.602 192.705 140.834ZM194.521 140.629V140.834C194.521 141.361 194.574 141.856 194.678 142.318C194.788 142.781 194.958 143.188 195.186 143.539C195.413 143.891 195.703 144.167 196.055 144.369C196.406 144.564 196.826 144.662 197.314 144.662C197.913 144.662 198.405 144.535 198.789 144.281C199.18 144.027 199.492 143.692 199.727 143.275C199.961 142.859 200.143 142.406 200.273 141.918V139.564C200.195 139.206 200.081 138.861 199.932 138.529C199.788 138.191 199.6 137.891 199.365 137.631C199.137 137.364 198.854 137.152 198.516 136.996C198.184 136.84 197.79 136.762 197.334 136.762C196.839 136.762 196.413 136.866 196.055 137.074C195.703 137.276 195.413 137.556 195.186 137.914C194.958 138.266 194.788 138.676 194.678 139.145C194.574 139.607 194.521 140.102 194.521 140.629ZM208.828 146.195C208.092 146.195 207.425 146.072 206.826 145.824C206.234 145.57 205.723 145.215 205.293 144.76C204.87 144.304 204.544 143.764 204.316 143.139C204.089 142.514 203.975 141.83 203.975 141.088V140.678C203.975 139.818 204.102 139.053 204.355 138.383C204.609 137.706 204.954 137.133 205.391 136.664C205.827 136.195 206.322 135.84 206.875 135.6C207.428 135.359 208.001 135.238 208.594 135.238C209.349 135.238 210 135.368 210.547 135.629C211.1 135.889 211.553 136.254 211.904 136.723C212.256 137.185 212.516 137.732 212.686 138.363C212.855 138.988 212.939 139.672 212.939 140.414V141.225H205.049V139.75H211.133V139.613C211.107 139.145 211.009 138.689 210.84 138.246C210.677 137.803 210.417 137.439 210.059 137.152C209.701 136.866 209.212 136.723 208.594 136.723C208.184 136.723 207.806 136.811 207.461 136.986C207.116 137.156 206.82 137.41 206.572 137.748C206.325 138.087 206.133 138.5 205.996 138.988C205.859 139.477 205.791 140.04 205.791 140.678V141.088C205.791 141.589 205.859 142.061 205.996 142.504C206.139 142.94 206.344 143.324 206.611 143.656C206.885 143.988 207.214 144.249 207.598 144.438C207.988 144.626 208.431 144.721 208.926 144.721C209.564 144.721 210.104 144.59 210.547 144.33C210.99 144.07 211.377 143.721 211.709 143.285L212.803 144.154C212.575 144.499 212.285 144.828 211.934 145.141C211.582 145.453 211.149 145.707 210.635 145.902C210.127 146.098 209.525 146.195 208.828 146.195Z" fill="black"/>
<path d="M116.895 213.424H113.096V211.891H116.895C117.63 211.891 118.226 211.773 118.682 211.539C119.137 211.305 119.469 210.979 119.678 210.562C119.893 210.146 120 209.671 120 209.137C120 208.648 119.893 208.189 119.678 207.76C119.469 207.33 119.137 206.985 118.682 206.725C118.226 206.458 117.63 206.324 116.895 206.324H113.535V219H111.65V204.781H116.895C117.969 204.781 118.877 204.967 119.619 205.338C120.361 205.709 120.924 206.223 121.309 206.881C121.693 207.532 121.885 208.277 121.885 209.117C121.885 210.029 121.693 210.807 121.309 211.451C120.924 212.096 120.361 212.587 119.619 212.926C118.877 213.258 117.969 213.424 116.895 213.424ZM128.242 219.195C127.507 219.195 126.839 219.072 126.24 218.824C125.648 218.57 125.137 218.215 124.707 217.76C124.284 217.304 123.958 216.764 123.73 216.139C123.503 215.514 123.389 214.83 123.389 214.088V213.678C123.389 212.818 123.516 212.053 123.77 211.383C124.023 210.706 124.368 210.133 124.805 209.664C125.241 209.195 125.736 208.84 126.289 208.6C126.842 208.359 127.415 208.238 128.008 208.238C128.763 208.238 129.414 208.368 129.961 208.629C130.514 208.889 130.967 209.254 131.318 209.723C131.67 210.185 131.93 210.732 132.1 211.363C132.269 211.988 132.354 212.672 132.354 213.414V214.225H124.463V212.75H130.547V212.613C130.521 212.145 130.423 211.689 130.254 211.246C130.091 210.803 129.831 210.439 129.473 210.152C129.115 209.866 128.626 209.723 128.008 209.723C127.598 209.723 127.22 209.811 126.875 209.986C126.53 210.156 126.234 210.41 125.986 210.748C125.739 211.087 125.547 211.5 125.41 211.988C125.273 212.477 125.205 213.04 125.205 213.678V214.088C125.205 214.589 125.273 215.061 125.41 215.504C125.553 215.94 125.758 216.324 126.025 216.656C126.299 216.988 126.628 217.249 127.012 217.438C127.402 217.626 127.845 217.721 128.34 217.721C128.978 217.721 129.518 217.59 129.961 217.33C130.404 217.07 130.791 216.721 131.123 216.285L132.217 217.154C131.989 217.499 131.699 217.828 131.348 218.141C130.996 218.453 130.563 218.707 130.049 218.902C129.541 219.098 128.939 219.195 128.242 219.195ZM138.887 208.434V209.82H133.174V208.434H138.887ZM135.107 205.865H136.914V216.383C136.914 216.741 136.969 217.011 137.08 217.193C137.191 217.376 137.334 217.496 137.51 217.555C137.686 217.613 137.874 217.643 138.076 217.643C138.226 217.643 138.382 217.63 138.545 217.604C138.714 217.571 138.841 217.545 138.926 217.525L138.936 219C138.792 219.046 138.604 219.088 138.369 219.127C138.141 219.173 137.865 219.195 137.539 219.195C137.096 219.195 136.689 219.107 136.318 218.932C135.947 218.756 135.651 218.463 135.43 218.053C135.215 217.636 135.107 217.076 135.107 216.373V205.865ZM155.088 217.516V219H145.781V217.701L150.439 212.516C151.012 211.878 151.455 211.337 151.768 210.895C152.087 210.445 152.308 210.045 152.432 209.693C152.562 209.335 152.627 208.971 152.627 208.6C152.627 208.131 152.529 207.708 152.334 207.33C152.145 206.946 151.865 206.64 151.494 206.412C151.123 206.184 150.674 206.07 150.146 206.07C149.515 206.07 148.988 206.194 148.564 206.441C148.148 206.682 147.835 207.021 147.627 207.457C147.419 207.893 147.314 208.395 147.314 208.961H145.508C145.508 208.16 145.684 207.428 146.035 206.764C146.387 206.1 146.908 205.572 147.598 205.182C148.288 204.785 149.137 204.586 150.146 204.586C151.045 204.586 151.813 204.745 152.451 205.064C153.089 205.377 153.577 205.82 153.916 206.393C154.261 206.959 154.434 207.623 154.434 208.385C154.434 208.801 154.362 209.225 154.219 209.654C154.082 210.077 153.89 210.501 153.643 210.924C153.402 211.347 153.118 211.764 152.793 212.174C152.474 212.584 152.132 212.988 151.768 213.385L147.959 217.516H155.088ZM158.857 216.852V218.307C158.857 218.899 158.708 219.524 158.408 220.182C158.109 220.846 157.689 221.399 157.148 221.842L156.123 221.129C156.331 220.842 156.507 220.549 156.65 220.25C156.794 219.957 156.901 219.651 156.973 219.332C157.051 219.02 157.09 218.688 157.09 218.336V216.852H158.857ZM168.086 208.434V219H166.27V208.434H168.086ZM166.133 205.631C166.133 205.338 166.221 205.09 166.396 204.889C166.579 204.687 166.846 204.586 167.197 204.586C167.542 204.586 167.806 204.687 167.988 204.889C168.177 205.09 168.271 205.338 168.271 205.631C168.271 205.911 168.177 206.152 167.988 206.354C167.806 206.549 167.542 206.646 167.197 206.646C166.846 206.646 166.579 206.549 166.396 206.354C166.221 206.152 166.133 205.911 166.133 205.631ZM177.646 216.949V204H179.463V219H177.803L177.646 216.949ZM170.537 213.834V213.629C170.537 212.822 170.635 212.089 170.83 211.432C171.032 210.768 171.315 210.198 171.68 209.723C172.051 209.247 172.49 208.883 172.998 208.629C173.512 208.368 174.085 208.238 174.717 208.238C175.381 208.238 175.96 208.355 176.455 208.59C176.956 208.818 177.38 209.153 177.725 209.596C178.076 210.032 178.353 210.559 178.555 211.178C178.757 211.796 178.896 212.496 178.975 213.277V214.176C178.903 214.951 178.763 215.647 178.555 216.266C178.353 216.884 178.076 217.411 177.725 217.848C177.38 218.284 176.956 218.619 176.455 218.854C175.954 219.081 175.368 219.195 174.697 219.195C174.079 219.195 173.512 219.062 172.998 218.795C172.49 218.528 172.051 218.154 171.68 217.672C171.315 217.19 171.032 216.624 170.83 215.973C170.635 215.315 170.537 214.602 170.537 213.834ZM172.354 213.629V213.834C172.354 214.361 172.406 214.856 172.51 215.318C172.62 215.781 172.79 216.188 173.018 216.539C173.245 216.891 173.535 217.167 173.887 217.369C174.238 217.564 174.658 217.662 175.146 217.662C175.745 217.662 176.237 217.535 176.621 217.281C177.012 217.027 177.324 216.692 177.559 216.275C177.793 215.859 177.975 215.406 178.105 214.918V212.564C178.027 212.206 177.913 211.861 177.764 211.529C177.62 211.191 177.432 210.891 177.197 210.631C176.969 210.364 176.686 210.152 176.348 209.996C176.016 209.84 175.622 209.762 175.166 209.762C174.671 209.762 174.245 209.866 173.887 210.074C173.535 210.276 173.245 210.556 173.018 210.914C172.79 211.266 172.62 211.676 172.51 212.145C172.406 212.607 172.354 213.102 172.354 213.629ZM188.506 217.193V211.754C188.506 211.337 188.421 210.976 188.252 210.67C188.089 210.357 187.842 210.117 187.51 209.947C187.178 209.778 186.768 209.693 186.279 209.693C185.824 209.693 185.423 209.771 185.078 209.928C184.74 210.084 184.473 210.289 184.277 210.543C184.089 210.797 183.994 211.07 183.994 211.363H182.188C182.188 210.986 182.285 210.611 182.48 210.24C182.676 209.869 182.956 209.534 183.32 209.234C183.691 208.928 184.134 208.688 184.648 208.512C185.169 208.329 185.749 208.238 186.387 208.238C187.155 208.238 187.832 208.368 188.418 208.629C189.01 208.889 189.473 209.283 189.805 209.811C190.143 210.331 190.312 210.986 190.312 211.773V216.695C190.312 217.047 190.342 217.421 190.4 217.818C190.465 218.215 190.56 218.557 190.684 218.844V219H188.799C188.708 218.792 188.636 218.515 188.584 218.17C188.532 217.818 188.506 217.493 188.506 217.193ZM188.818 212.594L188.838 213.863H187.012C186.497 213.863 186.038 213.906 185.635 213.99C185.231 214.068 184.893 214.189 184.619 214.352C184.346 214.514 184.137 214.719 183.994 214.967C183.851 215.208 183.779 215.491 183.779 215.816C183.779 216.148 183.854 216.451 184.004 216.725C184.154 216.998 184.378 217.216 184.678 217.379C184.984 217.535 185.358 217.613 185.801 217.613C186.354 217.613 186.842 217.496 187.266 217.262C187.689 217.027 188.024 216.741 188.271 216.402C188.525 216.064 188.662 215.735 188.682 215.416L189.453 216.285C189.408 216.559 189.284 216.861 189.082 217.193C188.88 217.525 188.61 217.844 188.271 218.15C187.939 218.45 187.542 218.701 187.08 218.902C186.624 219.098 186.11 219.195 185.537 219.195C184.821 219.195 184.193 219.055 183.652 218.775C183.118 218.495 182.702 218.121 182.402 217.652C182.109 217.177 181.963 216.646 181.963 216.061C181.963 215.494 182.074 214.996 182.295 214.566C182.516 214.13 182.835 213.769 183.252 213.482C183.669 213.189 184.17 212.968 184.756 212.818C185.342 212.669 185.996 212.594 186.719 212.594H188.818ZM199.814 216.949V204H201.631V219H199.971L199.814 216.949ZM192.705 213.834V213.629C192.705 212.822 192.803 212.089 192.998 211.432C193.2 210.768 193.483 210.198 193.848 209.723C194.219 209.247 194.658 208.883 195.166 208.629C195.68 208.368 196.253 208.238 196.885 208.238C197.549 208.238 198.128 208.355 198.623 208.59C199.124 208.818 199.548 209.153 199.893 209.596C200.244 210.032 200.521 210.559 200.723 211.178C200.924 211.796 201.064 212.496 201.143 213.277V214.176C201.071 214.951 200.931 215.647 200.723 216.266C200.521 216.884 200.244 217.411 199.893 217.848C199.548 218.284 199.124 218.619 198.623 218.854C198.122 219.081 197.536 219.195 196.865 219.195C196.247 219.195 195.68 219.062 195.166 218.795C194.658 218.528 194.219 218.154 193.848 217.672C193.483 217.19 193.2 216.624 192.998 215.973C192.803 215.315 192.705 214.602 192.705 213.834ZM194.521 213.629V213.834C194.521 214.361 194.574 214.856 194.678 215.318C194.788 215.781 194.958 216.188 195.186 216.539C195.413 216.891 195.703 217.167 196.055 217.369C196.406 217.564 196.826 217.662 197.314 217.662C197.913 217.662 198.405 217.535 198.789 217.281C199.18 217.027 199.492 216.692 199.727 216.275C199.961 215.859 200.143 215.406 200.273 214.918V212.564C200.195 212.206 200.081 211.861 199.932 211.529C199.788 211.191 199.6 210.891 199.365 210.631C199.137 210.364 198.854 210.152 198.516 209.996C198.184 209.84 197.79 209.762 197.334 209.762C196.839 209.762 196.413 209.866 196.055 210.074C195.703 210.276 195.413 210.556 195.186 210.914C194.958 211.266 194.788 211.676 194.678 212.145C194.574 212.607 194.521 213.102 194.521 213.629ZM208.828 219.195C208.092 219.195 207.425 219.072 206.826 218.824C206.234 218.57 205.723 218.215 205.293 217.76C204.87 217.304 204.544 216.764 204.316 216.139C204.089 215.514 203.975 214.83 203.975 214.088V213.678C203.975 212.818 204.102 212.053 204.355 211.383C204.609 210.706 204.954 210.133 205.391 209.664C205.827 209.195 206.322 208.84 206.875 208.6C207.428 208.359 208.001 208.238 208.594 208.238C209.349 208.238 210 208.368 210.547 208.629C211.1 208.889 211.553 209.254 211.904 209.723C212.256 210.185 212.516 210.732 212.686 211.363C212.855 211.988 212.939 212.672 212.939 213.414V214.225H205.049V212.75H211.133V212.613C211.107 212.145 211.009 211.689 210.84 211.246C210.677 210.803 210.417 210.439 210.059 210.152C209.701 209.866 209.212 209.723 208.594 209.723C208.184 209.723 207.806 209.811 207.461 209.986C207.116 210.156 206.82 210.41 206.572 210.748C206.325 211.087 206.133 211.5 205.996 211.988C205.859 212.477 205.791 213.04 205.791 213.678V214.088C205.791 214.589 205.859 215.061 205.996 215.504C206.139 215.94 206.344 216.324 206.611 216.656C206.885 216.988 207.214 217.249 207.598 217.438C207.988 217.626 208.431 217.721 208.926 217.721C209.564 217.721 210.104 217.59 210.547 217.33C210.99 217.07 211.377 216.721 211.709 216.285L212.803 217.154C212.575 217.499 212.285 217.828 211.934 218.141C211.582 218.453 211.149 218.707 210.635 218.902C210.127 219.098 209.525 219.195 208.828 219.195Z" fill="black"/>
<path d="M116.895 286.424H113.096V284.891H116.895C117.63 284.891 118.226 284.773 118.682 284.539C119.137 284.305 119.469 283.979 119.678 283.562C119.893 283.146 120 282.671 120 282.137C120 281.648 119.893 281.189 119.678 280.76C119.469 280.33 119.137 279.985 118.682 279.725C118.226 279.458 117.63 279.324 116.895 279.324H113.535V292H111.65V277.781H116.895C117.969 277.781 118.877 277.967 119.619 278.338C120.361 278.709 120.924 279.223 121.309 279.881C121.693 280.532 121.885 281.277 121.885 282.117C121.885 283.029 121.693 283.807 121.309 284.451C120.924 285.096 120.361 285.587 119.619 285.926C118.877 286.258 117.969 286.424 116.895 286.424ZM128.242 292.195C127.507 292.195 126.839 292.072 126.24 291.824C125.648 291.57 125.137 291.215 124.707 290.76C124.284 290.304 123.958 289.764 123.73 289.139C123.503 288.514 123.389 287.83 123.389 287.088V286.678C123.389 285.818 123.516 285.053 123.77 284.383C124.023 283.706 124.368 283.133 124.805 282.664C125.241 282.195 125.736 281.84 126.289 281.6C126.842 281.359 127.415 281.238 128.008 281.238C128.763 281.238 129.414 281.368 129.961 281.629C130.514 281.889 130.967 282.254 131.318 282.723C131.67 283.185 131.93 283.732 132.1 284.363C132.269 284.988 132.354 285.672 132.354 286.414V287.225H124.463V285.75H130.547V285.613C130.521 285.145 130.423 284.689 130.254 284.246C130.091 283.803 129.831 283.439 129.473 283.152C129.115 282.866 128.626 282.723 128.008 282.723C127.598 282.723 127.22 282.811 126.875 282.986C126.53 283.156 126.234 283.41 125.986 283.748C125.739 284.087 125.547 284.5 125.41 284.988C125.273 285.477 125.205 286.04 125.205 286.678V287.088C125.205 287.589 125.273 288.061 125.41 288.504C125.553 288.94 125.758 289.324 126.025 289.656C126.299 289.988 126.628 290.249 127.012 290.438C127.402 290.626 127.845 290.721 128.34 290.721C128.978 290.721 129.518 290.59 129.961 290.33C130.404 290.07 130.791 289.721 131.123 289.285L132.217 290.154C131.989 290.499 131.699 290.828 131.348 291.141C130.996 291.453 130.563 291.707 130.049 291.902C129.541 292.098 128.939 292.195 128.242 292.195ZM138.887 281.434V282.82H133.174V281.434H138.887ZM135.107 278.865H136.914V289.383C136.914 289.741 136.969 290.011 137.08 290.193C137.191 290.376 137.334 290.496 137.51 290.555C137.686 290.613 137.874 290.643 138.076 290.643C138.226 290.643 138.382 290.63 138.545 290.604C138.714 290.571 138.841 290.545 138.926 290.525L138.936 292C138.792 292.046 138.604 292.088 138.369 292.127C138.141 292.173 137.865 292.195 137.539 292.195C137.096 292.195 136.689 292.107 136.318 291.932C135.947 291.756 135.651 291.463 135.43 291.053C135.215 290.636 135.107 290.076 135.107 289.373V278.865ZM148.408 284.002H149.697C150.329 284.002 150.85 283.898 151.26 283.689C151.676 283.475 151.986 283.185 152.188 282.82C152.396 282.449 152.5 282.033 152.5 281.57C152.5 281.023 152.409 280.564 152.227 280.193C152.044 279.822 151.771 279.542 151.406 279.354C151.042 279.165 150.579 279.07 150.02 279.07C149.512 279.07 149.062 279.171 148.672 279.373C148.288 279.568 147.985 279.848 147.764 280.213C147.549 280.577 147.441 281.007 147.441 281.502H145.635C145.635 280.779 145.817 280.122 146.182 279.529C146.546 278.937 147.057 278.465 147.715 278.113C148.379 277.762 149.147 277.586 150.02 277.586C150.879 277.586 151.631 277.739 152.275 278.045C152.92 278.344 153.421 278.794 153.779 279.393C154.137 279.985 154.316 280.724 154.316 281.609C154.316 281.967 154.232 282.352 154.062 282.762C153.9 283.165 153.643 283.543 153.291 283.895C152.946 284.246 152.497 284.536 151.943 284.764C151.39 284.985 150.726 285.096 149.951 285.096H148.408V284.002ZM148.408 285.486V284.402H149.951C150.856 284.402 151.605 284.51 152.197 284.725C152.79 284.939 153.255 285.226 153.594 285.584C153.939 285.942 154.18 286.336 154.316 286.766C154.46 287.189 154.531 287.612 154.531 288.035C154.531 288.699 154.417 289.288 154.189 289.803C153.968 290.317 153.652 290.753 153.242 291.111C152.839 291.469 152.363 291.74 151.816 291.922C151.27 292.104 150.674 292.195 150.029 292.195C149.411 292.195 148.828 292.107 148.281 291.932C147.741 291.756 147.262 291.502 146.846 291.17C146.429 290.831 146.104 290.418 145.869 289.93C145.635 289.435 145.518 288.872 145.518 288.24H147.324C147.324 288.735 147.432 289.168 147.646 289.539C147.868 289.91 148.18 290.2 148.584 290.408C148.994 290.61 149.476 290.711 150.029 290.711C150.583 290.711 151.058 290.617 151.455 290.428C151.859 290.232 152.168 289.939 152.383 289.549C152.604 289.158 152.715 288.667 152.715 288.074C152.715 287.482 152.591 286.997 152.344 286.619C152.096 286.235 151.745 285.952 151.289 285.77C150.84 285.581 150.309 285.486 149.697 285.486H148.408ZM158.857 289.852V291.307C158.857 291.899 158.708 292.524 158.408 293.182C158.109 293.846 157.689 294.399 157.148 294.842L156.123 294.129C156.331 293.842 156.507 293.549 156.65 293.25C156.794 292.957 156.901 292.651 156.973 292.332C157.051 292.02 157.09 291.688 157.09 291.336V289.852H158.857ZM168.086 281.434V292H166.27V281.434H168.086ZM166.133 278.631C166.133 278.338 166.221 278.09 166.396 277.889C166.579 277.687 166.846 277.586 167.197 277.586C167.542 277.586 167.806 277.687 167.988 277.889C168.177 278.09 168.271 278.338 168.271 278.631C168.271 278.911 168.177 279.152 167.988 279.354C167.806 279.549 167.542 279.646 167.197 279.646C166.846 279.646 166.579 279.549 166.396 279.354C166.221 279.152 166.133 278.911 166.133 278.631ZM177.646 289.949V277H179.463V292H177.803L177.646 289.949ZM170.537 286.834V286.629C170.537 285.822 170.635 285.089 170.83 284.432C171.032 283.768 171.315 283.198 171.68 282.723C172.051 282.247 172.49 281.883 172.998 281.629C173.512 281.368 174.085 281.238 174.717 281.238C175.381 281.238 175.96 281.355 176.455 281.59C176.956 281.818 177.38 282.153 177.725 282.596C178.076 283.032 178.353 283.559 178.555 284.178C178.757 284.796 178.896 285.496 178.975 286.277V287.176C178.903 287.951 178.763 288.647 178.555 289.266C178.353 289.884 178.076 290.411 177.725 290.848C177.38 291.284 176.956 291.619 176.455 291.854C175.954 292.081 175.368 292.195 174.697 292.195C174.079 292.195 173.512 292.062 172.998 291.795C172.49 291.528 172.051 291.154 171.68 290.672C171.315 290.19 171.032 289.624 170.83 288.973C170.635 288.315 170.537 287.602 170.537 286.834ZM172.354 286.629V286.834C172.354 287.361 172.406 287.856 172.51 288.318C172.62 288.781 172.79 289.188 173.018 289.539C173.245 289.891 173.535 290.167 173.887 290.369C174.238 290.564 174.658 290.662 175.146 290.662C175.745 290.662 176.237 290.535 176.621 290.281C177.012 290.027 177.324 289.692 177.559 289.275C177.793 288.859 177.975 288.406 178.105 287.918V285.564C178.027 285.206 177.913 284.861 177.764 284.529C177.62 284.191 177.432 283.891 177.197 283.631C176.969 283.364 176.686 283.152 176.348 282.996C176.016 282.84 175.622 282.762 175.166 282.762C174.671 282.762 174.245 282.866 173.887 283.074C173.535 283.276 173.245 283.556 173.018 283.914C172.79 284.266 172.62 284.676 172.51 285.145C172.406 285.607 172.354 286.102 172.354 286.629ZM188.506 290.193V284.754C188.506 284.337 188.421 283.976 188.252 283.67C188.089 283.357 187.842 283.117 187.51 282.947C187.178 282.778 186.768 282.693 186.279 282.693C185.824 282.693 185.423 282.771 185.078 282.928C184.74 283.084 184.473 283.289 184.277 283.543C184.089 283.797 183.994 284.07 183.994 284.363H182.188C182.188 283.986 182.285 283.611 182.48 283.24C182.676 282.869 182.956 282.534 183.32 282.234C183.691 281.928 184.134 281.688 184.648 281.512C185.169 281.329 185.749 281.238 186.387 281.238C187.155 281.238 187.832 281.368 188.418 281.629C189.01 281.889 189.473 282.283 189.805 282.811C190.143 283.331 190.312 283.986 190.312 284.773V289.695C190.312 290.047 190.342 290.421 190.4 290.818C190.465 291.215 190.56 291.557 190.684 291.844V292H188.799C188.708 291.792 188.636 291.515 188.584 291.17C188.532 290.818 188.506 290.493 188.506 290.193ZM188.818 285.594L188.838 286.863H187.012C186.497 286.863 186.038 286.906 185.635 286.99C185.231 287.068 184.893 287.189 184.619 287.352C184.346 287.514 184.137 287.719 183.994 287.967C183.851 288.208 183.779 288.491 183.779 288.816C183.779 289.148 183.854 289.451 184.004 289.725C184.154 289.998 184.378 290.216 184.678 290.379C184.984 290.535 185.358 290.613 185.801 290.613C186.354 290.613 186.842 290.496 187.266 290.262C187.689 290.027 188.024 289.741 188.271 289.402C188.525 289.064 188.662 288.735 188.682 288.416L189.453 289.285C189.408 289.559 189.284 289.861 189.082 290.193C188.88 290.525 188.61 290.844 188.271 291.15C187.939 291.45 187.542 291.701 187.08 291.902C186.624 292.098 186.11 292.195 185.537 292.195C184.821 292.195 184.193 292.055 183.652 291.775C183.118 291.495 182.702 291.121 182.402 290.652C182.109 290.177 181.963 289.646 181.963 289.061C181.963 288.494 182.074 287.996 182.295 287.566C182.516 287.13 182.835 286.769 183.252 286.482C183.669 286.189 184.17 285.968 184.756 285.818C185.342 285.669 185.996 285.594 186.719 285.594H188.818ZM199.814 289.949V277H201.631V292H199.971L199.814 289.949ZM192.705 286.834V286.629C192.705 285.822 192.803 285.089 192.998 284.432C193.2 283.768 193.483 283.198 193.848 282.723C194.219 282.247 194.658 281.883 195.166 281.629C195.68 281.368 196.253 281.238 196.885 281.238C197.549 281.238 198.128 281.355 198.623 281.59C199.124 281.818 199.548 282.153 199.893 282.596C200.244 283.032 200.521 283.559 200.723 284.178C200.924 284.796 201.064 285.496 201.143 286.277V287.176C201.071 287.951 200.931 288.647 200.723 289.266C200.521 289.884 200.244 290.411 199.893 290.848C199.548 291.284 199.124 291.619 198.623 291.854C198.122 292.081 197.536 292.195 196.865 292.195C196.247 292.195 195.68 292.062 195.166 291.795C194.658 291.528 194.219 291.154 193.848 290.672C193.483 290.19 193.2 289.624 192.998 288.973C192.803 288.315 192.705 287.602 192.705 286.834ZM194.521 286.629V286.834C194.521 287.361 194.574 287.856 194.678 288.318C194.788 288.781 194.958 289.188 195.186 289.539C195.413 289.891 195.703 290.167 196.055 290.369C196.406 290.564 196.826 290.662 197.314 290.662C197.913 290.662 198.405 290.535 198.789 290.281C199.18 290.027 199.492 289.692 199.727 289.275C199.961 288.859 200.143 288.406 200.273 287.918V285.564C200.195 285.206 200.081 284.861 199.932 284.529C199.788 284.191 199.6 283.891 199.365 283.631C199.137 283.364 198.854 283.152 198.516 282.996C198.184 282.84 197.79 282.762 197.334 282.762C196.839 282.762 196.413 282.866 196.055 283.074C195.703 283.276 195.413 283.556 195.186 283.914C194.958 284.266 194.788 284.676 194.678 285.145C194.574 285.607 194.521 286.102 194.521 286.629ZM208.828 292.195C208.092 292.195 207.425 292.072 206.826 291.824C206.234 291.57 205.723 291.215 205.293 290.76C204.87 290.304 204.544 289.764 204.316 289.139C204.089 288.514 203.975 287.83 203.975 287.088V286.678C203.975 285.818 204.102 285.053 204.355 284.383C204.609 283.706 204.954 283.133 205.391 282.664C205.827 282.195 206.322 281.84 206.875 281.6C207.428 281.359 208.001 281.238 208.594 281.238C209.349 281.238 210 281.368 210.547 281.629C211.1 281.889 211.553 282.254 211.904 282.723C212.256 283.185 212.516 283.732 212.686 284.363C212.855 284.988 212.939 285.672 212.939 286.414V287.225H205.049V285.75H211.133V285.613C211.107 285.145 211.009 284.689 210.84 284.246C210.677 283.803 210.417 283.439 210.059 283.152C209.701 282.866 209.212 282.723 208.594 282.723C208.184 282.723 207.806 282.811 207.461 282.986C207.116 283.156 206.82 283.41 206.572 283.748C206.325 284.087 206.133 284.5 205.996 284.988C205.859 285.477 205.791 286.04 205.791 286.678V287.088C205.791 287.589 205.859 288.061 205.996 288.504C206.139 288.94 206.344 289.324 206.611 289.656C206.885 289.988 207.214 290.249 207.598 290.438C207.988 290.626 208.431 290.721 208.926 290.721C209.564 290.721 210.104 290.59 210.547 290.33C210.99 290.07 211.377 289.721 211.709 289.285L212.803 290.154C212.575 290.499 212.285 290.828 211.934 291.141C211.582 291.453 211.149 291.707 210.635 291.902C210.127 292.098 209.525 292.195 208.828 292.195Z" fill="black"/>
<path d="M116.895 360.424H113.096V358.891H116.895C117.63 358.891 118.226 358.773 118.682 358.539C119.137 358.305 119.469 357.979 119.678 357.562C119.893 357.146 120 356.671 120 356.137C120 355.648 119.893 355.189 119.678 354.76C119.469 354.33 119.137 353.985 118.682 353.725C118.226 353.458 117.63 353.324 116.895 353.324H113.535V366H111.65V351.781H116.895C117.969 351.781 118.877 351.967 119.619 352.338C120.361 352.709 120.924 353.223 121.309 353.881C121.693 354.532 121.885 355.277 121.885 356.117C121.885 357.029 121.693 357.807 121.309 358.451C120.924 359.096 120.361 359.587 119.619 359.926C118.877 360.258 117.969 360.424 116.895 360.424ZM128.242 366.195C127.507 366.195 126.839 366.072 126.24 365.824C125.648 365.57 125.137 365.215 124.707 364.76C124.284 364.304 123.958 363.764 123.73 363.139C123.503 362.514 123.389 361.83 123.389 361.088V360.678C123.389 359.818 123.516 359.053 123.77 358.383C124.023 357.706 124.368 357.133 124.805 356.664C125.241 356.195 125.736 355.84 126.289 355.6C126.842 355.359 127.415 355.238 128.008 355.238C128.763 355.238 129.414 355.368 129.961 355.629C130.514 355.889 130.967 356.254 131.318 356.723C131.67 357.185 131.93 357.732 132.1 358.363C132.269 358.988 132.354 359.672 132.354 360.414V361.225H124.463V359.75H130.547V359.613C130.521 359.145 130.423 358.689 130.254 358.246C130.091 357.803 129.831 357.439 129.473 357.152C129.115 356.866 128.626 356.723 128.008 356.723C127.598 356.723 127.22 356.811 126.875 356.986C126.53 357.156 126.234 357.41 125.986 357.748C125.739 358.087 125.547 358.5 125.41 358.988C125.273 359.477 125.205 360.04 125.205 360.678V361.088C125.205 361.589 125.273 362.061 125.41 362.504C125.553 362.94 125.758 363.324 126.025 363.656C126.299 363.988 126.628 364.249 127.012 364.438C127.402 364.626 127.845 364.721 128.34 364.721C128.978 364.721 129.518 364.59 129.961 364.33C130.404 364.07 130.791 363.721 131.123 363.285L132.217 364.154C131.989 364.499 131.699 364.828 131.348 365.141C130.996 365.453 130.563 365.707 130.049 365.902C129.541 366.098 128.939 366.195 128.242 366.195ZM138.887 355.434V356.82H133.174V355.434H138.887ZM135.107 352.865H136.914V363.383C136.914 363.741 136.969 364.011 137.08 364.193C137.191 364.376 137.334 364.496 137.51 364.555C137.686 364.613 137.874 364.643 138.076 364.643C138.226 364.643 138.382 364.63 138.545 364.604C138.714 364.571 138.841 364.545 138.926 364.525L138.936 366C138.792 366.046 138.604 366.088 138.369 366.127C138.141 366.173 137.865 366.195 137.539 366.195C137.096 366.195 136.689 366.107 136.318 365.932C135.947 365.756 135.651 365.463 135.43 365.053C135.215 364.636 135.107 364.076 135.107 363.373V352.865ZM155.381 361.215V362.699H145.107V361.635L151.475 351.781H152.949L151.367 354.633L147.158 361.215H155.381ZM153.398 351.781V366H151.592V351.781H153.398ZM158.857 363.852V365.307C158.857 365.899 158.708 366.524 158.408 367.182C158.109 367.846 157.689 368.399 157.148 368.842L156.123 368.129C156.331 367.842 156.507 367.549 156.65 367.25C156.794 366.957 156.901 366.651 156.973 366.332C157.051 366.02 157.09 365.688 157.09 365.336V363.852H158.857ZM168.086 355.434V366H166.27V355.434H168.086ZM166.133 352.631C166.133 352.338 166.221 352.09 166.396 351.889C166.579 351.687 166.846 351.586 167.197 351.586C167.542 351.586 167.806 351.687 167.988 351.889C168.177 352.09 168.271 352.338 168.271 352.631C168.271 352.911 168.177 353.152 167.988 353.354C167.806 353.549 167.542 353.646 167.197 353.646C166.846 353.646 166.579 353.549 166.396 353.354C166.221 353.152 166.133 352.911 166.133 352.631ZM177.646 363.949V351H179.463V366H177.803L177.646 363.949ZM170.537 360.834V360.629C170.537 359.822 170.635 359.089 170.83 358.432C171.032 357.768 171.315 357.198 171.68 356.723C172.051 356.247 172.49 355.883 172.998 355.629C173.512 355.368 174.085 355.238 174.717 355.238C175.381 355.238 175.96 355.355 176.455 355.59C176.956 355.818 177.38 356.153 177.725 356.596C178.076 357.032 178.353 357.559 178.555 358.178C178.757 358.796 178.896 359.496 178.975 360.277V361.176C178.903 361.951 178.763 362.647 178.555 363.266C178.353 363.884 178.076 364.411 177.725 364.848C177.38 365.284 176.956 365.619 176.455 365.854C175.954 366.081 175.368 366.195 174.697 366.195C174.079 366.195 173.512 366.062 172.998 365.795C172.49 365.528 172.051 365.154 171.68 364.672C171.315 364.19 171.032 363.624 170.83 362.973C170.635 362.315 170.537 361.602 170.537 360.834ZM172.354 360.629V360.834C172.354 361.361 172.406 361.856 172.51 362.318C172.62 362.781 172.79 363.188 173.018 363.539C173.245 363.891 173.535 364.167 173.887 364.369C174.238 364.564 174.658 364.662 175.146 364.662C175.745 364.662 176.237 364.535 176.621 364.281C177.012 364.027 177.324 363.692 177.559 363.275C177.793 362.859 177.975 362.406 178.105 361.918V359.564C178.027 359.206 177.913 358.861 177.764 358.529C177.62 358.191 177.432 357.891 177.197 357.631C176.969 357.364 176.686 357.152 176.348 356.996C176.016 356.84 175.622 356.762 175.166 356.762C174.671 356.762 174.245 356.866 173.887 357.074C173.535 357.276 173.245 357.556 173.018 357.914C172.79 358.266 172.62 358.676 172.51 359.145C172.406 359.607 172.354 360.102 172.354 360.629ZM188.506 364.193V358.754C188.506 358.337 188.421 357.976 188.252 357.67C188.089 357.357 187.842 357.117 187.51 356.947C187.178 356.778 186.768 356.693 186.279 356.693C185.824 356.693 185.423 356.771 185.078 356.928C184.74 357.084 184.473 357.289 184.277 357.543C184.089 357.797 183.994 358.07 183.994 358.363H182.188C182.188 357.986 182.285 357.611 182.48 357.24C182.676 356.869 182.956 356.534 183.32 356.234C183.691 355.928 184.134 355.688 184.648 355.512C185.169 355.329 185.749 355.238 186.387 355.238C187.155 355.238 187.832 355.368 188.418 355.629C189.01 355.889 189.473 356.283 189.805 356.811C190.143 357.331 190.312 357.986 190.312 358.773V363.695C190.312 364.047 190.342 364.421 190.4 364.818C190.465 365.215 190.56 365.557 190.684 365.844V366H188.799C188.708 365.792 188.636 365.515 188.584 365.17C188.532 364.818 188.506 364.493 188.506 364.193ZM188.818 359.594L188.838 360.863H187.012C186.497 360.863 186.038 360.906 185.635 360.99C185.231 361.068 184.893 361.189 184.619 361.352C184.346 361.514 184.137 361.719 183.994 361.967C183.851 362.208 183.779 362.491 183.779 362.816C183.779 363.148 183.854 363.451 184.004 363.725C184.154 363.998 184.378 364.216 184.678 364.379C184.984 364.535 185.358 364.613 185.801 364.613C186.354 364.613 186.842 364.496 187.266 364.262C187.689 364.027 188.024 363.741 188.271 363.402C188.525 363.064 188.662 362.735 188.682 362.416L189.453 363.285C189.408 363.559 189.284 363.861 189.082 364.193C188.88 364.525 188.61 364.844 188.271 365.15C187.939 365.45 187.542 365.701 187.08 365.902C186.624 366.098 186.11 366.195 185.537 366.195C184.821 366.195 184.193 366.055 183.652 365.775C183.118 365.495 182.702 365.121 182.402 364.652C182.109 364.177 181.963 363.646 181.963 363.061C181.963 362.494 182.074 361.996 182.295 361.566C182.516 361.13 182.835 360.769 183.252 360.482C183.669 360.189 184.17 359.968 184.756 359.818C185.342 359.669 185.996 359.594 186.719 359.594H188.818ZM199.814 363.949V351H201.631V366H199.971L199.814 363.949ZM192.705 360.834V360.629C192.705 359.822 192.803 359.089 192.998 358.432C193.2 357.768 193.483 357.198 193.848 356.723C194.219 356.247 194.658 355.883 195.166 355.629C195.68 355.368 196.253 355.238 196.885 355.238C197.549 355.238 198.128 355.355 198.623 355.59C199.124 355.818 199.548 356.153 199.893 356.596C200.244 357.032 200.521 357.559 200.723 358.178C200.924 358.796 201.064 359.496 201.143 360.277V361.176C201.071 361.951 200.931 362.647 200.723 363.266C200.521 363.884 200.244 364.411 199.893 364.848C199.548 365.284 199.124 365.619 198.623 365.854C198.122 366.081 197.536 366.195 196.865 366.195C196.247 366.195 195.68 366.062 195.166 365.795C194.658 365.528 194.219 365.154 193.848 364.672C193.483 364.19 193.2 363.624 192.998 362.973C192.803 362.315 192.705 361.602 192.705 360.834ZM194.521 360.629V360.834C194.521 361.361 194.574 361.856 194.678 362.318C194.788 362.781 194.958 363.188 195.186 363.539C195.413 363.891 195.703 364.167 196.055 364.369C196.406 364.564 196.826 364.662 197.314 364.662C197.913 364.662 198.405 364.535 198.789 364.281C199.18 364.027 199.492 363.692 199.727 363.275C199.961 362.859 200.143 362.406 200.273 361.918V359.564C200.195 359.206 200.081 358.861 199.932 358.529C199.788 358.191 199.6 357.891 199.365 357.631C199.137 357.364 198.854 357.152 198.516 356.996C198.184 356.84 197.79 356.762 197.334 356.762C196.839 356.762 196.413 356.866 196.055 357.074C195.703 357.276 195.413 357.556 195.186 357.914C194.958 358.266 194.788 358.676 194.678 359.145C194.574 359.607 194.521 360.102 194.521 360.629ZM208.828 366.195C208.092 366.195 207.425 366.072 206.826 365.824C206.234 365.57 205.723 365.215 205.293 364.76C204.87 364.304 204.544 363.764 204.316 363.139C204.089 362.514 203.975 361.83 203.975 361.088V360.678C203.975 359.818 204.102 359.053 204.355 358.383C204.609 357.706 204.954 357.133 205.391 356.664C205.827 356.195 206.322 355.84 206.875 355.6C207.428 355.359 208.001 355.238 208.594 355.238C209.349 355.238 210 355.368 210.547 355.629C211.1 355.889 211.553 356.254 211.904 356.723C212.256 357.185 212.516 357.732 212.686 358.363C212.855 358.988 212.939 359.672 212.939 360.414V361.225H205.049V359.75H211.133V359.613C211.107 359.145 211.009 358.689 210.84 358.246C210.677 357.803 210.417 357.439 210.059 357.152C209.701 356.866 209.212 356.723 208.594 356.723C208.184 356.723 207.806 356.811 207.461 356.986C207.116 357.156 206.82 357.41 206.572 357.748C206.325 358.087 206.133 358.5 205.996 358.988C205.859 359.477 205.791 360.04 205.791 360.678V361.088C205.791 361.589 205.859 362.061 205.996 362.504C206.139 362.94 206.344 363.324 206.611 363.656C206.885 363.988 207.214 364.249 207.598 364.438C207.988 364.626 208.431 364.721 208.926 364.721C209.564 364.721 210.104 364.59 210.547 364.33C210.99 364.07 211.377 363.721 211.709 363.285L212.803 364.154C212.575 364.499 212.285 364.828 211.934 365.141C211.582 365.453 211.149 365.707 210.635 365.902C210.127 366.098 209.525 366.195 208.828 366.195Z" fill="black"/>
<path d="M116.895 433.424H113.096V431.891H116.895C117.63 431.891 118.226 431.773 118.682 431.539C119.137 431.305 119.469 430.979 119.678 430.562C119.893 430.146 120 429.671 120 429.137C120 428.648 119.893 428.189 119.678 427.76C119.469 427.33 119.137 426.985 118.682 426.725C118.226 426.458 117.63 426.324 116.895 426.324H113.535V439H111.65V424.781H116.895C117.969 424.781 118.877 424.967 119.619 425.338C120.361 425.709 120.924 426.223 121.309 426.881C121.693 427.532 121.885 428.277 121.885 429.117C121.885 430.029 121.693 430.807 121.309 431.451C120.924 432.096 120.361 432.587 119.619 432.926C118.877 433.258 117.969 433.424 116.895 433.424ZM128.242 439.195C127.507 439.195 126.839 439.072 126.24 438.824C125.648 438.57 125.137 438.215 124.707 437.76C124.284 437.304 123.958 436.764 123.73 436.139C123.503 435.514 123.389 434.83 123.389 434.088V433.678C123.389 432.818 123.516 432.053 123.77 431.383C124.023 430.706 124.368 430.133 124.805 429.664C125.241 429.195 125.736 428.84 126.289 428.6C126.842 428.359 127.415 428.238 128.008 428.238C128.763 428.238 129.414 428.368 129.961 428.629C130.514 428.889 130.967 429.254 131.318 429.723C131.67 430.185 131.93 430.732 132.1 431.363C132.269 431.988 132.354 432.672 132.354 433.414V434.225H124.463V432.75H130.547V432.613C130.521 432.145 130.423 431.689 130.254 431.246C130.091 430.803 129.831 430.439 129.473 430.152C129.115 429.866 128.626 429.723 128.008 429.723C127.598 429.723 127.22 429.811 126.875 429.986C126.53 430.156 126.234 430.41 125.986 430.748C125.739 431.087 125.547 431.5 125.41 431.988C125.273 432.477 125.205 433.04 125.205 433.678V434.088C125.205 434.589 125.273 435.061 125.41 435.504C125.553 435.94 125.758 436.324 126.025 436.656C126.299 436.988 126.628 437.249 127.012 437.438C127.402 437.626 127.845 437.721 128.34 437.721C128.978 437.721 129.518 437.59 129.961 437.33C130.404 437.07 130.791 436.721 131.123 436.285L132.217 437.154C131.989 437.499 131.699 437.828 131.348 438.141C130.996 438.453 130.563 438.707 130.049 438.902C129.541 439.098 128.939 439.195 128.242 439.195ZM138.887 428.434V429.82H133.174V428.434H138.887ZM135.107 425.865H136.914V436.383C136.914 436.741 136.969 437.011 137.08 437.193C137.191 437.376 137.334 437.496 137.51 437.555C137.686 437.613 137.874 437.643 138.076 437.643C138.226 437.643 138.382 437.63 138.545 437.604C138.714 437.571 138.841 437.545 138.926 437.525L138.936 439C138.792 439.046 138.604 439.088 138.369 439.127C138.141 439.173 137.865 439.195 137.539 439.195C137.096 439.195 136.689 439.107 136.318 438.932C135.947 438.756 135.651 438.463 135.43 438.053C135.215 437.636 135.107 437.076 135.107 436.373V425.865ZM148.057 432.232L146.611 431.861L147.324 424.781H154.619V426.451H148.857L148.428 430.318C148.688 430.169 149.017 430.029 149.414 429.898C149.818 429.768 150.28 429.703 150.801 429.703C151.458 429.703 152.048 429.817 152.568 430.045C153.089 430.266 153.532 430.585 153.896 431.002C154.268 431.419 154.551 431.92 154.746 432.506C154.941 433.092 155.039 433.746 155.039 434.469C155.039 435.152 154.945 435.781 154.756 436.354C154.574 436.926 154.297 437.428 153.926 437.857C153.555 438.281 153.086 438.609 152.52 438.844C151.96 439.078 151.299 439.195 150.537 439.195C149.964 439.195 149.421 439.117 148.906 438.961C148.398 438.798 147.943 438.554 147.539 438.229C147.142 437.896 146.816 437.486 146.562 436.998C146.315 436.503 146.159 435.924 146.094 435.26H147.812C147.891 435.794 148.047 436.243 148.281 436.607C148.516 436.972 148.822 437.249 149.199 437.438C149.583 437.62 150.029 437.711 150.537 437.711C150.967 437.711 151.348 437.636 151.68 437.486C152.012 437.337 152.292 437.122 152.52 436.842C152.747 436.562 152.92 436.223 153.037 435.826C153.161 435.429 153.223 434.983 153.223 434.488C153.223 434.039 153.161 433.622 153.037 433.238C152.913 432.854 152.728 432.519 152.48 432.232C152.24 431.946 151.943 431.725 151.592 431.568C151.24 431.406 150.837 431.324 150.381 431.324C149.775 431.324 149.316 431.406 149.004 431.568C148.698 431.731 148.382 431.952 148.057 432.232ZM158.857 436.852V438.307C158.857 438.899 158.708 439.524 158.408 440.182C158.109 440.846 157.689 441.399 157.148 441.842L156.123 441.129C156.331 440.842 156.507 440.549 156.65 440.25C156.794 439.957 156.901 439.651 156.973 439.332C157.051 439.02 157.09 438.688 157.09 438.336V436.852H158.857ZM168.086 428.434V439H166.27V428.434H168.086ZM166.133 425.631C166.133 425.338 166.221 425.09 166.396 424.889C166.579 424.687 166.846 424.586 167.197 424.586C167.542 424.586 167.806 424.687 167.988 424.889C168.177 425.09 168.271 425.338 168.271 425.631C168.271 425.911 168.177 426.152 167.988 426.354C167.806 426.549 167.542 426.646 167.197 426.646C166.846 426.646 166.579 426.549 166.396 426.354C166.221 426.152 166.133 425.911 166.133 425.631ZM177.646 436.949V424H179.463V439H177.803L177.646 436.949ZM170.537 433.834V433.629C170.537 432.822 170.635 432.089 170.83 431.432C171.032 430.768 171.315 430.198 171.68 429.723C172.051 429.247 172.49 428.883 172.998 428.629C173.512 428.368 174.085 428.238 174.717 428.238C175.381 428.238 175.96 428.355 176.455 428.59C176.956 428.818 177.38 429.153 177.725 429.596C178.076 430.032 178.353 430.559 178.555 431.178C178.757 431.796 178.896 432.496 178.975 433.277V434.176C178.903 434.951 178.763 435.647 178.555 436.266C178.353 436.884 178.076 437.411 177.725 437.848C177.38 438.284 176.956 438.619 176.455 438.854C175.954 439.081 175.368 439.195 174.697 439.195C174.079 439.195 173.512 439.062 172.998 438.795C172.49 438.528 172.051 438.154 171.68 437.672C171.315 437.19 171.032 436.624 170.83 435.973C170.635 435.315 170.537 434.602 170.537 433.834ZM172.354 433.629V433.834C172.354 434.361 172.406 434.856 172.51 435.318C172.62 435.781 172.79 436.188 173.018 436.539C173.245 436.891 173.535 437.167 173.887 437.369C174.238 437.564 174.658 437.662 175.146 437.662C175.745 437.662 176.237 437.535 176.621 437.281C177.012 437.027 177.324 436.692 177.559 436.275C177.793 435.859 177.975 435.406 178.105 434.918V432.564C178.027 432.206 177.913 431.861 177.764 431.529C177.62 431.191 177.432 430.891 177.197 430.631C176.969 430.364 176.686 430.152 176.348 429.996C176.016 429.84 175.622 429.762 175.166 429.762C174.671 429.762 174.245 429.866 173.887 430.074C173.535 430.276 173.245 430.556 173.018 430.914C172.79 431.266 172.62 431.676 172.51 432.145C172.406 432.607 172.354 433.102 172.354 433.629ZM188.506 437.193V431.754C188.506 431.337 188.421 430.976 188.252 430.67C188.089 430.357 187.842 430.117 187.51 429.947C187.178 429.778 186.768 429.693 186.279 429.693C185.824 429.693 185.423 429.771 185.078 429.928C184.74 430.084 184.473 430.289 184.277 430.543C184.089 430.797 183.994 431.07 183.994 431.363H182.188C182.188 430.986 182.285 430.611 182.48 430.24C182.676 429.869 182.956 429.534 183.32 429.234C183.691 428.928 184.134 428.688 184.648 428.512C185.169 428.329 185.749 428.238 186.387 428.238C187.155 428.238 187.832 428.368 188.418 428.629C189.01 428.889 189.473 429.283 189.805 429.811C190.143 430.331 190.312 430.986 190.312 431.773V436.695C190.312 437.047 190.342 437.421 190.4 437.818C190.465 438.215 190.56 438.557 190.684 438.844V439H188.799C188.708 438.792 188.636 438.515 188.584 438.17C188.532 437.818 188.506 437.493 188.506 437.193ZM188.818 432.594L188.838 433.863H187.012C186.497 433.863 186.038 433.906 185.635 433.99C185.231 434.068 184.893 434.189 184.619 434.352C184.346 434.514 184.137 434.719 183.994 434.967C183.851 435.208 183.779 435.491 183.779 435.816C183.779 436.148 183.854 436.451 184.004 436.725C184.154 436.998 184.378 437.216 184.678 437.379C184.984 437.535 185.358 437.613 185.801 437.613C186.354 437.613 186.842 437.496 187.266 437.262C187.689 437.027 188.024 436.741 188.271 436.402C188.525 436.064 188.662 435.735 188.682 435.416L189.453 436.285C189.408 436.559 189.284 436.861 189.082 437.193C188.88 437.525 188.61 437.844 188.271 438.15C187.939 438.45 187.542 438.701 187.08 438.902C186.624 439.098 186.11 439.195 185.537 439.195C184.821 439.195 184.193 439.055 183.652 438.775C183.118 438.495 182.702 438.121 182.402 437.652C182.109 437.177 181.963 436.646 181.963 436.061C181.963 435.494 182.074 434.996 182.295 434.566C182.516 434.13 182.835 433.769 183.252 433.482C183.669 433.189 184.17 432.968 184.756 432.818C185.342 432.669 185.996 432.594 186.719 432.594H188.818ZM199.814 436.949V424H201.631V439H199.971L199.814 436.949ZM192.705 433.834V433.629C192.705 432.822 192.803 432.089 192.998 431.432C193.2 430.768 193.483 430.198 193.848 429.723C194.219 429.247 194.658 428.883 195.166 428.629C195.68 428.368 196.253 428.238 196.885 428.238C197.549 428.238 198.128 428.355 198.623 428.59C199.124 428.818 199.548 429.153 199.893 429.596C200.244 430.032 200.521 430.559 200.723 431.178C200.924 431.796 201.064 432.496 201.143 433.277V434.176C201.071 434.951 200.931 435.647 200.723 436.266C200.521 436.884 200.244 437.411 199.893 437.848C199.548 438.284 199.124 438.619 198.623 438.854C198.122 439.081 197.536 439.195 196.865 439.195C196.247 439.195 195.68 439.062 195.166 438.795C194.658 438.528 194.219 438.154 193.848 437.672C193.483 437.19 193.2 436.624 192.998 435.973C192.803 435.315 192.705 434.602 192.705 433.834ZM194.521 433.629V433.834C194.521 434.361 194.574 434.856 194.678 435.318C194.788 435.781 194.958 436.188 195.186 436.539C195.413 436.891 195.703 437.167 196.055 437.369C196.406 437.564 196.826 437.662 197.314 437.662C197.913 437.662 198.405 437.535 198.789 437.281C199.18 437.027 199.492 436.692 199.727 436.275C199.961 435.859 200.143 435.406 200.273 434.918V432.564C200.195 432.206 200.081 431.861 199.932 431.529C199.788 431.191 199.6 430.891 199.365 430.631C199.137 430.364 198.854 430.152 198.516 429.996C198.184 429.84 197.79 429.762 197.334 429.762C196.839 429.762 196.413 429.866 196.055 430.074C195.703 430.276 195.413 430.556 195.186 430.914C194.958 431.266 194.788 431.676 194.678 432.145C194.574 432.607 194.521 433.102 194.521 433.629ZM208.828 439.195C208.092 439.195 207.425 439.072 206.826 438.824C206.234 438.57 205.723 438.215 205.293 437.76C204.87 437.304 204.544 436.764 204.316 436.139C204.089 435.514 203.975 434.83 203.975 434.088V433.678C203.975 432.818 204.102 432.053 204.355 431.383C204.609 430.706 204.954 430.133 205.391 429.664C205.827 429.195 206.322 428.84 206.875 428.6C207.428 428.359 208.001 428.238 208.594 428.238C209.349 428.238 210 428.368 210.547 428.629C211.1 428.889 211.553 429.254 211.904 429.723C212.256 430.185 212.516 430.732 212.686 431.363C212.855 431.988 212.939 432.672 212.939 433.414V434.225H205.049V432.75H211.133V432.613C211.107 432.145 211.009 431.689 210.84 431.246C210.677 430.803 210.417 430.439 210.059 430.152C209.701 429.866 209.212 429.723 208.594 429.723C208.184 429.723 207.806 429.811 207.461 429.986C207.116 430.156 206.82 430.41 206.572 430.748C206.325 431.087 206.133 431.5 205.996 431.988C205.859 432.477 205.791 433.04 205.791 433.678V434.088C205.791 434.589 205.859 435.061 205.996 435.504C206.139 435.94 206.344 436.324 206.611 436.656C206.885 436.988 207.214 437.249 207.598 437.438C207.988 437.626 208.431 437.721 208.926 437.721C209.564 437.721 210.104 437.59 210.547 437.33C210.99 437.07 211.377 436.721 211.709 436.285L212.803 437.154C212.575 437.499 212.285 437.828 211.934 438.141C211.582 438.453 211.149 438.707 210.635 438.902C210.127 439.098 209.525 439.195 208.828 439.195Z" fill="black"/>
<path d="M62.2344 61H58.8828V49C58.8828 48.7656 58.8359 48.5469 58.7422 48.3438C58.6562 48.1406 58.5352 47.9648 58.3789 47.8164C58.2305 47.6602 58.0547 47.5391 57.8516 47.4531C57.6484 47.3672 57.4297 47.3242 57.1953 47.3242C56.9609 47.3242 56.7422 47.3672 56.5391 47.4531C56.3359 47.5391 56.1562 47.6602 56 47.8164C55.8516 47.9648 55.7344 48.1406 55.6484 48.3438C55.5625 48.5469 55.5195 48.7656 55.5195 49V61H52.1562V49C52.1562 48.7656 52.1133 48.5469 52.0273 48.3438C51.9414 48.1406 51.8203 47.9648 51.6641 47.8164C51.5156 47.6602 51.3398 47.5391 51.1367 47.4531C50.9336 47.3672 50.7148 47.3242 50.4805 47.3242C50.2461 47.3242 50.0273 47.3672 49.8242 47.4531C49.6211 47.5391 49.4414 47.6602 49.2852 47.8164C49.1367 47.9648 49.0195 48.1406 48.9336 48.3438C48.8477 48.5469 48.8047 48.7656 48.8047 49V61H45.4414V49C45.4414 48.3047 45.5703 47.6523 45.8281 47.043C46.0938 46.4258 46.4531 45.8906 46.9062 45.4375C47.3672 44.9766 47.9023 44.6172 48.5117 44.3594C49.1289 44.0938 49.7852 43.9609 50.4805 43.9609C51.1055 43.9609 51.707 44.0742 52.2852 44.3008C52.8633 44.5195 53.3828 44.8398 53.8438 45.2617C54.3047 44.8398 54.8203 44.5195 55.3906 44.3008C55.9688 44.0742 56.5703 43.9609 57.1953 43.9609C57.8906 43.9609 58.543 44.0938 59.1523 44.3594C59.7695 44.6172 60.3047 44.9766 60.7578 45.4375C61.2188 45.8906 61.5781 46.4258 61.8359 47.043C62.1016 47.6523 62.2344 48.3047 62.2344 49V61ZM68.6797 45.0391C68.6797 45.3359 68.6211 45.6133 68.5039 45.8711C68.3945 46.1289 68.2422 46.3555 68.0469 46.5508C67.8516 46.7383 67.6211 46.8906 67.3555 47.0078C67.0977 47.1172 66.8203 47.1719 66.5234 47.1719C66.2266 47.1719 65.9453 47.1172 65.6797 47.0078C65.4219 46.8906 65.1953 46.7383 65 46.5508C64.8125 46.3555 64.6602 46.1289 64.543 45.8711C64.4336 45.6133 64.3789 45.3359 64.3789 45.0391C64.3789 44.75 64.4336 44.4766 64.543 44.2188C64.6602 43.9531 64.8125 43.7266 65 43.5391C65.1953 43.3438 65.4219 43.1914 65.6797 43.082C65.9453 42.9648 66.2266 42.9062 66.5234 42.9062C66.8203 42.9062 67.0977 42.9648 67.3555 43.082C67.6211 43.1914 67.8516 43.3438 68.0469 43.5391C68.2422 43.7266 68.3945 43.9531 68.5039 44.2188C68.6211 44.4766 68.6797 44.75 68.6797 45.0391ZM68.1289 61H64.9062V48.4492H68.1289V61ZM80.8086 54.2852V50.9219C80.8086 50.4609 80.7188 50.0273 80.5391 49.6211C80.3672 49.207 80.1289 48.8477 79.8242 48.543C79.5195 48.2383 79.1602 48 78.7461 47.8281C78.3398 47.6484 77.9062 47.5586 77.4453 47.5586C76.9844 47.5586 76.5469 47.6484 76.1328 47.8281C75.7266 48 75.3711 48.2383 75.0664 48.543C74.7617 48.8477 74.5195 49.207 74.3398 49.6211C74.168 50.0273 74.082 50.4609 74.082 50.9219V54.2852H80.8086ZM84.1719 61H80.8086V57.6367H74.082V61H70.7305V50.9219C70.7305 49.9922 70.9062 49.1211 71.2578 48.3086C71.6094 47.4883 72.0859 46.7734 72.6875 46.1641C73.2969 45.5547 74.0078 45.0742 74.8203 44.7227C75.6406 44.3711 76.5156 44.1953 77.4453 44.1953C78.375 44.1953 79.2461 44.3711 80.0586 44.7227C80.8789 45.0742 81.5938 45.5547 82.2031 46.1641C82.8125 46.7734 83.293 47.4883 83.6445 48.3086C83.9961 49.1211 84.1719 49.9922 84.1719 50.9219V61ZM95.8555 59.5352C95.5977 59.7695 95.3203 59.9922 95.0234 60.2031C94.7344 60.4062 94.4297 60.5859 94.1094 60.7422C93.7891 60.8906 93.457 61.0078 93.1133 61.0938C92.7773 61.1875 92.4336 61.2344 92.082 61.2344C91.3086 61.2344 90.582 61.0977 89.9023 60.8242C89.2227 60.5508 88.625 60.1641 88.1094 59.6641C87.6016 59.1562 87.1992 58.543 86.9023 57.8242C86.6133 57.0977 86.4688 56.2852 86.4688 55.3867V48.4492H89.6562V55.3867C89.6562 55.8086 89.7188 56.1875 89.8438 56.5234C89.9766 56.8516 90.1523 57.1289 90.3711 57.3555C90.5898 57.582 90.8438 57.7539 91.1328 57.8711C91.4297 57.9883 91.7461 58.0469 92.082 58.0469C92.4102 58.0469 92.7188 57.9727 93.0078 57.8242C93.3047 57.668 93.5625 57.4648 93.7812 57.2148C94 56.9648 94.1719 56.6836 94.2969 56.3711C94.4219 56.0508 94.4844 55.7227 94.4844 55.3867V48.4492H97.6836V61H96.9102L95.8555 59.5352Z" fill="black"/>
<path fill-rule="evenodd" clip-rule="evenodd" d="M271.04 481.483V465.962H266.264L266.264 481.483H250.743V486.259H266.264L266.264 501.779H271.04V486.259H286.56V481.483H271.04Z" fill="#DBA419"/>
<path fill-rule="evenodd" clip-rule="evenodd" d="M279.928 43.4506C279.928 45.2822 278.443 46.767 276.611 46.767C274.78 46.767 273.295 45.2822 273.295 43.4506C273.295 41.619 274.78 40.1342 276.611 40.1342C278.443 40.1342 279.928 41.619 279.928 43.4506ZM279.928 52.7365C279.928 54.5681 278.443 56.053 276.611 56.053C274.78 56.053 273.295 54.5681 273.295 52.7365C273.295 50.9049 274.78 49.4201 276.611 49.4201C278.443 49.4201 279.928 50.9049 279.928 52.7365ZM276.611 65.3389C278.443 65.3389 279.928 63.8541 279.928 62.0225C279.928 60.1909 278.443 58.7061 276.611 58.7061C274.78 58.7061 273.295 60.1909 273.295 62.0225C273.295 63.8541 274.78 65.3389 276.611 65.3389Z" fill="black"/>
<line x1="9" y1="88" x2="312" y2="88" stroke="#DBA419" stroke-width="2"/>
</svg>
