<svg width="321" height="540" viewBox="0 0 321 540" fill="none" xmlns="http://www.w3.org/2000/svg">
<rect width="321" height="540" fill="#DBA419"/>
<rect x="10" y="9" width="302" height="522" rx="16" fill="#FFFEFE"/>
<rect x="21.5" y="32.5" width="277" height="45" rx="22.5" fill="white" stroke="black"/>
<rect x="21.5" y="89.5" width="277" height="45" rx="22.5" fill="white" stroke="black"/>
<rect x="21.5" y="146.5" width="277" height="45" rx="22.5" fill="white" stroke="black"/>
<rect x="21.5" y="203.5" width="277" height="45" rx="22.5" fill="white" stroke="black"/>
<rect x="21.5" y="260.5" width="277" height="46" rx="23" fill="white" stroke="black"/>
<rect x="21.5" y="317.5" width="140" height="46" rx="23" fill="white" stroke="black"/>
<rect x="21.5" y="374.5" width="140" height="46" rx="23" fill="white" stroke="black"/>
<rect x="94.5" y="460.5" width="140" height="46" rx="23" fill="white" stroke="black"/>
<path d="M147.229 486.406C147.229 486.074 147.176 485.781 147.072 485.527C146.975 485.267 146.799 485.033 146.545 484.824C146.298 484.616 145.952 484.417 145.51 484.229C145.074 484.04 144.52 483.848 143.85 483.652C143.146 483.444 142.512 483.213 141.945 482.959C141.379 482.699 140.894 482.402 140.49 482.07C140.087 481.738 139.777 481.357 139.562 480.928C139.348 480.498 139.24 480.007 139.24 479.453C139.24 478.9 139.354 478.389 139.582 477.92C139.81 477.451 140.135 477.044 140.559 476.699C140.988 476.348 141.499 476.074 142.092 475.879C142.684 475.684 143.345 475.586 144.074 475.586C145.142 475.586 146.047 475.791 146.789 476.201C147.538 476.605 148.107 477.135 148.498 477.793C148.889 478.444 149.084 479.141 149.084 479.883H147.209C147.209 479.349 147.095 478.877 146.867 478.467C146.639 478.05 146.294 477.725 145.832 477.49C145.37 477.249 144.784 477.129 144.074 477.129C143.404 477.129 142.85 477.23 142.414 477.432C141.978 477.633 141.652 477.907 141.438 478.252C141.229 478.597 141.125 478.991 141.125 479.434C141.125 479.733 141.187 480.007 141.311 480.254C141.441 480.495 141.639 480.719 141.906 480.928C142.18 481.136 142.525 481.328 142.941 481.504C143.365 481.68 143.869 481.849 144.455 482.012C145.262 482.24 145.959 482.493 146.545 482.773C147.131 483.053 147.613 483.369 147.99 483.721C148.374 484.066 148.658 484.46 148.84 484.902C149.029 485.339 149.123 485.833 149.123 486.387C149.123 486.966 149.006 487.49 148.771 487.959C148.537 488.428 148.202 488.828 147.766 489.16C147.329 489.492 146.805 489.749 146.193 489.932C145.588 490.107 144.911 490.195 144.162 490.195C143.505 490.195 142.857 490.104 142.219 489.922C141.587 489.74 141.011 489.466 140.49 489.102C139.976 488.737 139.562 488.288 139.25 487.754C138.944 487.214 138.791 486.589 138.791 485.879H140.666C140.666 486.367 140.76 486.787 140.949 487.139C141.138 487.484 141.395 487.77 141.721 487.998C142.053 488.226 142.427 488.395 142.844 488.506C143.267 488.61 143.706 488.662 144.162 488.662C144.82 488.662 145.376 488.571 145.832 488.389C146.288 488.206 146.633 487.946 146.867 487.607C147.108 487.269 147.229 486.868 147.229 486.406ZM157.482 488.193V482.754C157.482 482.337 157.398 481.976 157.229 481.67C157.066 481.357 156.818 481.117 156.486 480.947C156.154 480.778 155.744 480.693 155.256 480.693C154.8 480.693 154.4 480.771 154.055 480.928C153.716 481.084 153.449 481.289 153.254 481.543C153.065 481.797 152.971 482.07 152.971 482.363H151.164C151.164 481.986 151.262 481.611 151.457 481.24C151.652 480.869 151.932 480.534 152.297 480.234C152.668 479.928 153.111 479.688 153.625 479.512C154.146 479.329 154.725 479.238 155.363 479.238C156.132 479.238 156.809 479.368 157.395 479.629C157.987 479.889 158.449 480.283 158.781 480.811C159.12 481.331 159.289 481.986 159.289 482.773V487.695C159.289 488.047 159.318 488.421 159.377 488.818C159.442 489.215 159.536 489.557 159.66 489.844V490H157.775C157.684 489.792 157.613 489.515 157.561 489.17C157.508 488.818 157.482 488.493 157.482 488.193ZM157.795 483.594L157.814 484.863H155.988C155.474 484.863 155.015 484.906 154.611 484.99C154.208 485.068 153.869 485.189 153.596 485.352C153.322 485.514 153.114 485.719 152.971 485.967C152.827 486.208 152.756 486.491 152.756 486.816C152.756 487.148 152.831 487.451 152.98 487.725C153.13 487.998 153.355 488.216 153.654 488.379C153.96 488.535 154.335 488.613 154.777 488.613C155.331 488.613 155.819 488.496 156.242 488.262C156.665 488.027 157.001 487.741 157.248 487.402C157.502 487.064 157.639 486.735 157.658 486.416L158.43 487.285C158.384 487.559 158.26 487.861 158.059 488.193C157.857 488.525 157.587 488.844 157.248 489.15C156.916 489.45 156.519 489.701 156.057 489.902C155.601 490.098 155.087 490.195 154.514 490.195C153.798 490.195 153.169 490.055 152.629 489.775C152.095 489.495 151.678 489.121 151.379 488.652C151.086 488.177 150.939 487.646 150.939 487.061C150.939 486.494 151.05 485.996 151.271 485.566C151.493 485.13 151.812 484.769 152.229 484.482C152.645 484.189 153.146 483.968 153.732 483.818C154.318 483.669 154.973 483.594 155.695 483.594H157.795ZM164.094 475V490H162.277V475H164.094ZM170.207 488.369L173.098 479.434H174.943L171.145 490H169.934L170.207 488.369ZM167.795 479.434L170.773 488.418L170.979 490H169.768L165.939 479.434H167.795ZM182.756 488.193V482.754C182.756 482.337 182.671 481.976 182.502 481.67C182.339 481.357 182.092 481.117 181.76 480.947C181.428 480.778 181.018 480.693 180.529 480.693C180.074 480.693 179.673 480.771 179.328 480.928C178.99 481.084 178.723 481.289 178.527 481.543C178.339 481.797 178.244 482.07 178.244 482.363H176.438C176.438 481.986 176.535 481.611 176.73 481.24C176.926 480.869 177.206 480.534 177.57 480.234C177.941 479.928 178.384 479.688 178.898 479.512C179.419 479.329 179.999 479.238 180.637 479.238C181.405 479.238 182.082 479.368 182.668 479.629C183.26 479.889 183.723 480.283 184.055 480.811C184.393 481.331 184.562 481.986 184.562 482.773V487.695C184.562 488.047 184.592 488.421 184.65 488.818C184.715 489.215 184.81 489.557 184.934 489.844V490H183.049C182.958 489.792 182.886 489.515 182.834 489.17C182.782 488.818 182.756 488.493 182.756 488.193ZM183.068 483.594L183.088 484.863H181.262C180.747 484.863 180.288 484.906 179.885 484.99C179.481 485.068 179.143 485.189 178.869 485.352C178.596 485.514 178.387 485.719 178.244 485.967C178.101 486.208 178.029 486.491 178.029 486.816C178.029 487.148 178.104 487.451 178.254 487.725C178.404 487.998 178.628 488.216 178.928 488.379C179.234 488.535 179.608 488.613 180.051 488.613C180.604 488.613 181.092 488.496 181.516 488.262C181.939 488.027 182.274 487.741 182.521 487.402C182.775 487.064 182.912 486.735 182.932 486.416L183.703 487.285C183.658 487.559 183.534 487.861 183.332 488.193C183.13 488.525 182.86 488.844 182.521 489.15C182.189 489.45 181.792 489.701 181.33 489.902C180.874 490.098 180.36 490.195 179.787 490.195C179.071 490.195 178.443 490.055 177.902 489.775C177.368 489.495 176.952 489.121 176.652 488.652C176.359 488.177 176.213 487.646 176.213 487.061C176.213 486.494 176.324 485.996 176.545 485.566C176.766 485.13 177.085 484.769 177.502 484.482C177.919 484.189 178.42 483.968 179.006 483.818C179.592 483.669 180.246 483.594 180.969 483.594H183.068ZM189.211 481.094V490H187.404V479.434H189.162L189.211 481.094ZM192.512 479.375L192.502 481.055C192.352 481.022 192.209 481.003 192.072 480.996C191.942 480.983 191.792 480.977 191.623 480.977C191.206 480.977 190.839 481.042 190.52 481.172C190.201 481.302 189.93 481.484 189.709 481.719C189.488 481.953 189.312 482.233 189.182 482.559C189.058 482.878 188.977 483.229 188.938 483.613L188.43 483.906C188.43 483.268 188.492 482.669 188.615 482.109C188.745 481.549 188.944 481.055 189.211 480.625C189.478 480.189 189.816 479.85 190.227 479.609C190.643 479.362 191.138 479.238 191.711 479.238C191.841 479.238 191.991 479.255 192.16 479.287C192.329 479.313 192.447 479.342 192.512 479.375Z" fill="black"/>
<path d="M51.5879 48.7812V63H49.6934L42.5352 52.0332V63H40.6504V48.7812H42.5352L49.7227 59.7773V48.7812H51.5879ZM54.1758 57.834V57.6094C54.1758 56.8477 54.2865 56.1413 54.5078 55.4902C54.7292 54.8327 55.0482 54.263 55.4648 53.7812C55.8815 53.293 56.3861 52.9154 56.9785 52.6484C57.571 52.375 58.235 52.2383 58.9707 52.2383C59.7129 52.2383 60.3802 52.375 60.9727 52.6484C61.5716 52.9154 62.0794 53.293 62.4961 53.7812C62.9193 54.263 63.2415 54.8327 63.4629 55.4902C63.6842 56.1413 63.7949 56.8477 63.7949 57.6094V57.834C63.7949 58.5957 63.6842 59.3021 63.4629 59.9531C63.2415 60.6042 62.9193 61.1738 62.4961 61.6621C62.0794 62.1439 61.5749 62.5215 60.9824 62.7949C60.3965 63.0618 59.7324 63.1953 58.9902 63.1953C58.248 63.1953 57.5807 63.0618 56.9883 62.7949C56.3958 62.5215 55.888 62.1439 55.4648 61.6621C55.0482 61.1738 54.7292 60.6042 54.5078 59.9531C54.2865 59.3021 54.1758 58.5957 54.1758 57.834ZM55.9824 57.6094V57.834C55.9824 58.3613 56.0443 58.8594 56.168 59.3281C56.2917 59.7904 56.4772 60.2005 56.7246 60.5586C56.9785 60.9167 57.2943 61.1999 57.6719 61.4082C58.0495 61.61 58.4889 61.7109 58.9902 61.7109C59.485 61.7109 59.918 61.61 60.2891 61.4082C60.6667 61.1999 60.9792 60.9167 61.2266 60.5586C61.474 60.2005 61.6595 59.7904 61.7832 59.3281C61.9134 58.8594 61.9785 58.3613 61.9785 57.834V57.6094C61.9785 57.0885 61.9134 56.597 61.7832 56.1348C61.6595 55.666 61.4707 55.2526 61.2168 54.8945C60.9694 54.5299 60.6569 54.2435 60.2793 54.0352C59.9082 53.8268 59.472 53.7227 58.9707 53.7227C58.4759 53.7227 58.0397 53.8268 57.6621 54.0352C57.291 54.2435 56.9785 54.5299 56.7246 54.8945C56.4772 55.2526 56.2917 55.666 56.168 56.1348C56.0443 56.597 55.9824 57.0885 55.9824 57.6094ZM67.8574 54.5332V63H66.041V52.4336H67.7598L67.8574 54.5332ZM67.4863 57.3164L66.6465 57.2871C66.653 56.5645 66.7474 55.8971 66.9297 55.2852C67.112 54.6667 67.3822 54.1296 67.7402 53.6738C68.0983 53.2181 68.5443 52.8665 69.0781 52.6191C69.612 52.3652 70.2305 52.2383 70.9336 52.2383C71.4284 52.2383 71.8841 52.3099 72.3008 52.4531C72.7174 52.5898 73.0788 52.8079 73.3848 53.1074C73.6908 53.4069 73.9284 53.791 74.0977 54.2598C74.2669 54.7285 74.3516 55.2949 74.3516 55.959V63H72.5449V56.0469C72.5449 55.4935 72.4505 55.0508 72.2617 54.7188C72.0794 54.3867 71.819 54.1458 71.4805 53.9961C71.1419 53.8398 70.7448 53.7617 70.2891 53.7617C69.7552 53.7617 69.3092 53.8561 68.9512 54.0449C68.5931 54.2337 68.3066 54.4941 68.0918 54.8262C67.877 55.1582 67.7207 55.5391 67.623 55.9688C67.5319 56.3919 67.4863 56.8411 67.4863 57.3164ZM74.332 56.3203L73.1211 56.6914C73.1276 56.112 73.222 55.5553 73.4043 55.0215C73.5931 54.4876 73.8633 54.0124 74.2148 53.5957C74.5729 53.179 75.0124 52.8503 75.5332 52.6094C76.054 52.362 76.6497 52.2383 77.3203 52.2383C77.8867 52.2383 78.388 52.3132 78.8242 52.4629C79.2669 52.6126 79.638 52.8438 79.9375 53.1562C80.2435 53.4622 80.4746 53.8561 80.6309 54.3379C80.7871 54.8197 80.8652 55.3926 80.8652 56.0566V63H79.0488V56.0371C79.0488 55.4447 78.9544 54.9857 78.7656 54.6602C78.5833 54.3281 78.3229 54.097 77.9844 53.9668C77.6523 53.8301 77.2552 53.7617 76.793 53.7617C76.3958 53.7617 76.0443 53.8301 75.7383 53.9668C75.4323 54.1035 75.1751 54.2923 74.9668 54.5332C74.7585 54.7676 74.599 55.0378 74.4883 55.3438C74.3841 55.6497 74.332 55.9753 74.332 56.3203ZM87.9844 63.1953C87.2487 63.1953 86.5814 63.0716 85.9824 62.8242C85.39 62.5703 84.8789 62.2155 84.4492 61.7598C84.026 61.304 83.7005 60.7637 83.4727 60.1387C83.2448 59.5137 83.1309 58.8301 83.1309 58.0879V57.6777C83.1309 56.8184 83.2578 56.0534 83.5117 55.3828C83.7656 54.7057 84.1107 54.1328 84.5469 53.6641C84.9831 53.1953 85.4779 52.8405 86.0312 52.5996C86.5846 52.3587 87.1576 52.2383 87.75 52.2383C88.5052 52.2383 89.1562 52.3685 89.7031 52.6289C90.2565 52.8893 90.709 53.2539 91.0605 53.7227C91.4121 54.1849 91.6725 54.7318 91.8418 55.3633C92.0111 55.9883 92.0957 56.6719 92.0957 57.4141V58.2246H84.2051V56.75H90.2891V56.6133C90.263 56.1445 90.1654 55.6888 89.9961 55.2461C89.8333 54.8034 89.5729 54.4388 89.2148 54.1523C88.8568 53.8659 88.3685 53.7227 87.75 53.7227C87.3398 53.7227 86.9622 53.8105 86.6172 53.9863C86.2721 54.1556 85.9759 54.4095 85.7285 54.748C85.4811 55.0866 85.2891 55.5 85.1523 55.9883C85.0156 56.4766 84.9473 57.0397 84.9473 57.6777V58.0879C84.9473 58.5892 85.0156 59.0612 85.1523 59.5039C85.2956 59.9401 85.5007 60.3242 85.7676 60.6562C86.041 60.9883 86.3698 61.2487 86.7539 61.4375C87.1445 61.6263 87.5872 61.7207 88.082 61.7207C88.7201 61.7207 89.2604 61.5905 89.7031 61.3301C90.1458 61.0697 90.5332 60.7214 90.8652 60.2852L91.959 61.1543C91.7311 61.4993 91.4414 61.8281 91.0898 62.1406C90.7383 62.4531 90.3053 62.707 89.791 62.9023C89.2832 63.0977 88.681 63.1953 87.9844 63.1953Z" fill="black"/>
<path d="M42.6719 105.781V120H40.7871V105.781H42.6719ZM52.4863 117.949V105H54.3027V120H52.6426L52.4863 117.949ZM45.377 114.834V114.629C45.377 113.822 45.4746 113.089 45.6699 112.432C45.8717 111.768 46.1549 111.198 46.5195 110.723C46.8906 110.247 47.3301 109.883 47.8379 109.629C48.3522 109.368 48.9251 109.238 49.5566 109.238C50.2207 109.238 50.8001 109.355 51.2949 109.59C51.7962 109.818 52.2194 110.153 52.5645 110.596C52.916 111.032 53.1927 111.559 53.3945 112.178C53.5964 112.796 53.7363 113.496 53.8145 114.277V115.176C53.7428 115.951 53.6029 116.647 53.3945 117.266C53.1927 117.884 52.916 118.411 52.5645 118.848C52.2194 119.284 51.7962 119.619 51.2949 119.854C50.7936 120.081 50.2077 120.195 49.5371 120.195C48.9186 120.195 48.3522 120.062 47.8379 119.795C47.3301 119.528 46.8906 119.154 46.5195 118.672C46.1549 118.19 45.8717 117.624 45.6699 116.973C45.4746 116.315 45.377 115.602 45.377 114.834ZM47.1934 114.629V114.834C47.1934 115.361 47.2454 115.856 47.3496 116.318C47.4603 116.781 47.6296 117.188 47.8574 117.539C48.0853 117.891 48.375 118.167 48.7266 118.369C49.0781 118.564 49.498 118.662 49.9863 118.662C50.5853 118.662 51.0768 118.535 51.4609 118.281C51.8516 118.027 52.1641 117.692 52.3984 117.275C52.6328 116.859 52.8151 116.406 52.9453 115.918V113.564C52.8672 113.206 52.7533 112.861 52.6035 112.529C52.4603 112.191 52.2715 111.891 52.0371 111.631C51.8092 111.364 51.526 111.152 51.1875 110.996C50.8555 110.84 50.4616 110.762 50.0059 110.762C49.5111 110.762 49.0846 110.866 48.7266 111.074C48.375 111.276 48.0853 111.556 47.8574 111.914C47.6296 112.266 47.4603 112.676 47.3496 113.145C47.2454 113.607 47.1934 114.102 47.1934 114.629ZM63.3457 118.193V112.754C63.3457 112.337 63.2611 111.976 63.0918 111.67C62.929 111.357 62.6816 111.117 62.3496 110.947C62.0176 110.778 61.6074 110.693 61.1191 110.693C60.6634 110.693 60.263 110.771 59.918 110.928C59.5794 111.084 59.3125 111.289 59.1172 111.543C58.9284 111.797 58.834 112.07 58.834 112.363H57.0273C57.0273 111.986 57.125 111.611 57.3203 111.24C57.5156 110.869 57.7956 110.534 58.1602 110.234C58.5312 109.928 58.974 109.688 59.4883 109.512C60.0091 109.329 60.5885 109.238 61.2266 109.238C61.9948 109.238 62.6719 109.368 63.2578 109.629C63.8503 109.889 64.3125 110.283 64.6445 110.811C64.9831 111.331 65.1523 111.986 65.1523 112.773V117.695C65.1523 118.047 65.1816 118.421 65.2402 118.818C65.3053 119.215 65.3997 119.557 65.5234 119.844V120H63.6387C63.5475 119.792 63.4759 119.515 63.4238 119.17C63.3717 118.818 63.3457 118.493 63.3457 118.193ZM63.6582 113.594L63.6777 114.863H61.8516C61.3372 114.863 60.8783 114.906 60.4746 114.99C60.071 115.068 59.7324 115.189 59.459 115.352C59.1855 115.514 58.9772 115.719 58.834 115.967C58.6908 116.208 58.6191 116.491 58.6191 116.816C58.6191 117.148 58.694 117.451 58.8438 117.725C58.9935 117.998 59.2181 118.216 59.5176 118.379C59.8236 118.535 60.1979 118.613 60.6406 118.613C61.194 118.613 61.6823 118.496 62.1055 118.262C62.5286 118.027 62.8639 117.741 63.1113 117.402C63.3652 117.064 63.502 116.735 63.5215 116.416L64.293 117.285C64.2474 117.559 64.1237 117.861 63.9219 118.193C63.7201 118.525 63.4499 118.844 63.1113 119.15C62.7793 119.45 62.3822 119.701 61.9199 119.902C61.4642 120.098 60.9499 120.195 60.377 120.195C59.6608 120.195 59.0326 120.055 58.4922 119.775C57.9583 119.495 57.5417 119.121 57.2422 118.652C56.9492 118.177 56.8027 117.646 56.8027 117.061C56.8027 116.494 56.9134 115.996 57.1348 115.566C57.3561 115.13 57.6751 114.769 58.0918 114.482C58.5085 114.189 59.0098 113.968 59.5957 113.818C60.1816 113.669 60.8359 113.594 61.5586 113.594H63.6582ZM74.6543 117.949V105H76.4707V120H74.8105L74.6543 117.949ZM67.5449 114.834V114.629C67.5449 113.822 67.6426 113.089 67.8379 112.432C68.0397 111.768 68.3229 111.198 68.6875 110.723C69.0586 110.247 69.498 109.883 70.0059 109.629C70.5202 109.368 71.0931 109.238 71.7246 109.238C72.3887 109.238 72.9681 109.355 73.4629 109.59C73.9642 109.818 74.3874 110.153 74.7324 110.596C75.084 111.032 75.3607 111.559 75.5625 112.178C75.7643 112.796 75.9043 113.496 75.9824 114.277V115.176C75.9108 115.951 75.7708 116.647 75.5625 117.266C75.3607 117.884 75.084 118.411 74.7324 118.848C74.3874 119.284 73.9642 119.619 73.4629 119.854C72.9616 120.081 72.3757 120.195 71.7051 120.195C71.0866 120.195 70.5202 120.062 70.0059 119.795C69.498 119.528 69.0586 119.154 68.6875 118.672C68.3229 118.19 68.0397 117.624 67.8379 116.973C67.6426 116.315 67.5449 115.602 67.5449 114.834ZM69.3613 114.629V114.834C69.3613 115.361 69.4134 115.856 69.5176 116.318C69.6283 116.781 69.7975 117.188 70.0254 117.539C70.2533 117.891 70.543 118.167 70.8945 118.369C71.2461 118.564 71.666 118.662 72.1543 118.662C72.7533 118.662 73.2448 118.535 73.6289 118.281C74.0195 118.027 74.332 117.692 74.5664 117.275C74.8008 116.859 74.9831 116.406 75.1133 115.918V113.564C75.0352 113.206 74.9212 112.861 74.7715 112.529C74.6283 112.191 74.4395 111.891 74.2051 111.631C73.9772 111.364 73.694 111.152 73.3555 110.996C73.0234 110.84 72.6296 110.762 72.1738 110.762C71.679 110.762 71.2526 110.866 70.8945 111.074C70.543 111.276 70.2533 111.556 70.0254 111.914C69.7975 112.266 69.6283 112.676 69.5176 113.145C69.4134 113.607 69.3613 114.102 69.3613 114.629ZM83.668 120.195C82.9323 120.195 82.265 120.072 81.666 119.824C81.0736 119.57 80.5625 119.215 80.1328 118.76C79.7096 118.304 79.3841 117.764 79.1562 117.139C78.9284 116.514 78.8145 115.83 78.8145 115.088V114.678C78.8145 113.818 78.9414 113.053 79.1953 112.383C79.4492 111.706 79.7943 111.133 80.2305 110.664C80.6667 110.195 81.1615 109.84 81.7148 109.6C82.2682 109.359 82.8411 109.238 83.4336 109.238C84.1888 109.238 84.8398 109.368 85.3867 109.629C85.9401 109.889 86.3926 110.254 86.7441 110.723C87.0957 111.185 87.3561 111.732 87.5254 112.363C87.6947 112.988 87.7793 113.672 87.7793 114.414V115.225H79.8887V113.75H85.9727V113.613C85.9466 113.145 85.849 112.689 85.6797 112.246C85.5169 111.803 85.2565 111.439 84.8984 111.152C84.5404 110.866 84.0521 110.723 83.4336 110.723C83.0234 110.723 82.6458 110.811 82.3008 110.986C81.9557 111.156 81.6595 111.41 81.4121 111.748C81.1647 112.087 80.9727 112.5 80.8359 112.988C80.6992 113.477 80.6309 114.04 80.6309 114.678V115.088C80.6309 115.589 80.6992 116.061 80.8359 116.504C80.9792 116.94 81.1842 117.324 81.4512 117.656C81.7246 117.988 82.0534 118.249 82.4375 118.438C82.8281 118.626 83.2708 118.721 83.7656 118.721C84.4036 118.721 84.944 118.59 85.3867 118.33C85.8294 118.07 86.2168 117.721 86.5488 117.285L87.6426 118.154C87.4147 118.499 87.125 118.828 86.7734 119.141C86.4219 119.453 85.9889 119.707 85.4746 119.902C84.9668 120.098 84.3646 120.195 83.668 120.195Z" fill="black"/>
<path d="M45.9141 164.041L41.207 177H39.2832L44.7031 162.781H45.9434L45.9141 164.041ZM49.8594 177L45.1426 164.041L45.1133 162.781H46.3535L51.793 177H49.8594ZM49.6152 171.736V173.279H41.627V171.736H49.6152ZM55.2305 168.689V177H53.4238V166.434H55.1328L55.2305 168.689ZM54.8008 171.316L54.0488 171.287C54.0553 170.564 54.1628 169.897 54.3711 169.285C54.5794 168.667 54.8724 168.13 55.25 167.674C55.6276 167.218 56.0768 166.867 56.5977 166.619C57.125 166.365 57.7077 166.238 58.3457 166.238C58.8665 166.238 59.3353 166.31 59.752 166.453C60.1686 166.59 60.5234 166.811 60.8164 167.117C61.1159 167.423 61.3438 167.82 61.5 168.309C61.6562 168.79 61.7344 169.38 61.7344 170.076V177H59.918V170.057C59.918 169.503 59.8366 169.061 59.6738 168.729C59.5111 168.39 59.2734 168.146 58.9609 167.996C58.6484 167.84 58.2643 167.762 57.8086 167.762C57.3594 167.762 56.9492 167.856 56.5781 168.045C56.2135 168.234 55.8978 168.494 55.6309 168.826C55.3704 169.158 55.1654 169.539 55.0156 169.969C54.8724 170.392 54.8008 170.841 54.8008 171.316ZM66.4414 166.434V177H64.625V166.434H66.4414ZM64.4883 163.631C64.4883 163.338 64.5762 163.09 64.752 162.889C64.9342 162.687 65.2012 162.586 65.5527 162.586C65.8978 162.586 66.1615 162.687 66.3438 162.889C66.5326 163.09 66.627 163.338 66.627 163.631C66.627 163.911 66.5326 164.152 66.3438 164.354C66.1615 164.549 65.8978 164.646 65.5527 164.646C65.2012 164.646 64.9342 164.549 64.752 164.354C64.5762 164.152 64.4883 163.911 64.4883 163.631ZM72.5547 175.369L75.4453 166.434H77.291L73.4922 177H72.2812L72.5547 175.369ZM70.1426 166.434L73.1211 175.418L73.3262 177H72.1152L68.2871 166.434H70.1426ZM83.2773 177.195C82.5417 177.195 81.8743 177.072 81.2754 176.824C80.6829 176.57 80.1719 176.215 79.7422 175.76C79.319 175.304 78.9935 174.764 78.7656 174.139C78.5378 173.514 78.4238 172.83 78.4238 172.088V171.678C78.4238 170.818 78.5508 170.053 78.8047 169.383C79.0586 168.706 79.4036 168.133 79.8398 167.664C80.276 167.195 80.7708 166.84 81.3242 166.6C81.8776 166.359 82.4505 166.238 83.043 166.238C83.7982 166.238 84.4492 166.368 84.9961 166.629C85.5495 166.889 86.002 167.254 86.3535 167.723C86.7051 168.185 86.9655 168.732 87.1348 169.363C87.304 169.988 87.3887 170.672 87.3887 171.414V172.225H79.498V170.75H85.582V170.613C85.556 170.145 85.4583 169.689 85.2891 169.246C85.1263 168.803 84.8659 168.439 84.5078 168.152C84.1497 167.866 83.6615 167.723 83.043 167.723C82.6328 167.723 82.2552 167.811 81.9102 167.986C81.5651 168.156 81.2689 168.41 81.0215 168.748C80.7741 169.087 80.582 169.5 80.4453 169.988C80.3086 170.477 80.2402 171.04 80.2402 171.678V172.088C80.2402 172.589 80.3086 173.061 80.4453 173.504C80.5885 173.94 80.7936 174.324 81.0605 174.656C81.334 174.988 81.6628 175.249 82.0469 175.438C82.4375 175.626 82.8802 175.721 83.375 175.721C84.013 175.721 84.5534 175.59 84.9961 175.33C85.4388 175.07 85.8262 174.721 86.1582 174.285L87.252 175.154C87.0241 175.499 86.7344 175.828 86.3828 176.141C86.0312 176.453 85.5983 176.707 85.084 176.902C84.5762 177.098 83.974 177.195 83.2773 177.195ZM91.3047 168.094V177H89.498V166.434H91.2559L91.3047 168.094ZM94.6055 166.375L94.5957 168.055C94.446 168.022 94.3027 168.003 94.166 167.996C94.0358 167.983 93.8861 167.977 93.7168 167.977C93.3001 167.977 92.9323 168.042 92.6133 168.172C92.2943 168.302 92.0241 168.484 91.8027 168.719C91.5814 168.953 91.4056 169.233 91.2754 169.559C91.1517 169.878 91.0703 170.229 91.0312 170.613L90.5234 170.906C90.5234 170.268 90.5853 169.669 90.709 169.109C90.8392 168.549 91.0378 168.055 91.3047 167.625C91.5716 167.189 91.9102 166.85 92.3203 166.609C92.737 166.362 93.2318 166.238 93.8047 166.238C93.9349 166.238 94.0846 166.255 94.2539 166.287C94.4232 166.313 94.5404 166.342 94.6055 166.375ZM102.428 174.197C102.428 173.937 102.369 173.696 102.252 173.475C102.141 173.247 101.91 173.042 101.559 172.859C101.214 172.671 100.693 172.508 99.9961 172.371C99.4102 172.247 98.8796 172.101 98.4043 171.932C97.9355 171.762 97.5352 171.557 97.2031 171.316C96.8776 171.076 96.627 170.792 96.4512 170.467C96.2754 170.141 96.1875 169.76 96.1875 169.324C96.1875 168.908 96.2786 168.514 96.4609 168.143C96.6497 167.771 96.9134 167.443 97.252 167.156C97.597 166.87 98.0104 166.645 98.4922 166.482C98.974 166.32 99.5111 166.238 100.104 166.238C100.95 166.238 101.673 166.388 102.271 166.688C102.87 166.987 103.329 167.387 103.648 167.889C103.967 168.383 104.127 168.934 104.127 169.539H102.32C102.32 169.246 102.232 168.963 102.057 168.689C101.887 168.41 101.637 168.178 101.305 167.996C100.979 167.814 100.579 167.723 100.104 167.723C99.6022 167.723 99.1953 167.801 98.8828 167.957C98.5768 168.107 98.3522 168.299 98.209 168.533C98.0723 168.768 98.0039 169.015 98.0039 169.275C98.0039 169.471 98.0365 169.646 98.1016 169.803C98.1732 169.952 98.2969 170.092 98.4727 170.223C98.6484 170.346 98.8958 170.464 99.2148 170.574C99.5339 170.685 99.9408 170.796 100.436 170.906C101.301 171.102 102.014 171.336 102.574 171.609C103.134 171.883 103.551 172.218 103.824 172.615C104.098 173.012 104.234 173.494 104.234 174.061C104.234 174.523 104.137 174.946 103.941 175.33C103.753 175.714 103.476 176.046 103.111 176.326C102.753 176.6 102.324 176.814 101.822 176.971C101.327 177.12 100.771 177.195 100.152 177.195C99.2214 177.195 98.4336 177.029 97.7891 176.697C97.1445 176.365 96.6562 175.936 96.3242 175.408C95.9922 174.881 95.8262 174.324 95.8262 173.738H97.6426C97.6686 174.233 97.8118 174.627 98.0723 174.92C98.3327 175.206 98.6517 175.411 99.0293 175.535C99.4069 175.652 99.7812 175.711 100.152 175.711C100.647 175.711 101.061 175.646 101.393 175.516C101.731 175.385 101.988 175.206 102.164 174.979C102.34 174.751 102.428 174.49 102.428 174.197ZM112.838 175.193V169.754C112.838 169.337 112.753 168.976 112.584 168.67C112.421 168.357 112.174 168.117 111.842 167.947C111.51 167.778 111.1 167.693 110.611 167.693C110.156 167.693 109.755 167.771 109.41 167.928C109.072 168.084 108.805 168.289 108.609 168.543C108.421 168.797 108.326 169.07 108.326 169.363H106.52C106.52 168.986 106.617 168.611 106.812 168.24C107.008 167.869 107.288 167.534 107.652 167.234C108.023 166.928 108.466 166.688 108.98 166.512C109.501 166.329 110.081 166.238 110.719 166.238C111.487 166.238 112.164 166.368 112.75 166.629C113.342 166.889 113.805 167.283 114.137 167.811C114.475 168.331 114.645 168.986 114.645 169.773V174.695C114.645 175.047 114.674 175.421 114.732 175.818C114.798 176.215 114.892 176.557 115.016 176.844V177H113.131C113.04 176.792 112.968 176.515 112.916 176.17C112.864 175.818 112.838 175.493 112.838 175.193ZM113.15 170.594L113.17 171.863H111.344C110.829 171.863 110.37 171.906 109.967 171.99C109.563 172.068 109.225 172.189 108.951 172.352C108.678 172.514 108.469 172.719 108.326 172.967C108.183 173.208 108.111 173.491 108.111 173.816C108.111 174.148 108.186 174.451 108.336 174.725C108.486 174.998 108.71 175.216 109.01 175.379C109.316 175.535 109.69 175.613 110.133 175.613C110.686 175.613 111.174 175.496 111.598 175.262C112.021 175.027 112.356 174.741 112.604 174.402C112.857 174.064 112.994 173.735 113.014 173.416L113.785 174.285C113.74 174.559 113.616 174.861 113.414 175.193C113.212 175.525 112.942 175.844 112.604 176.15C112.271 176.45 111.874 176.701 111.412 176.902C110.956 177.098 110.442 177.195 109.869 177.195C109.153 177.195 108.525 177.055 107.984 176.775C107.451 176.495 107.034 176.121 106.734 175.652C106.441 175.177 106.295 174.646 106.295 174.061C106.295 173.494 106.406 172.996 106.627 172.566C106.848 172.13 107.167 171.769 107.584 171.482C108.001 171.189 108.502 170.968 109.088 170.818C109.674 170.669 110.328 170.594 111.051 170.594H113.15ZM109.918 164.871L111.812 162H113.99L111.373 164.871H109.918ZM119.293 168.094V177H117.486V166.434H119.244L119.293 168.094ZM122.594 166.375L122.584 168.055C122.434 168.022 122.291 168.003 122.154 167.996C122.024 167.983 121.874 167.977 121.705 167.977C121.288 167.977 120.921 168.042 120.602 168.172C120.283 168.302 120.012 168.484 119.791 168.719C119.57 168.953 119.394 169.233 119.264 169.559C119.14 169.878 119.059 170.229 119.02 170.613L118.512 170.906C118.512 170.268 118.574 169.669 118.697 169.109C118.827 168.549 119.026 168.055 119.293 167.625C119.56 167.189 119.898 166.85 120.309 166.609C120.725 166.362 121.22 166.238 121.793 166.238C121.923 166.238 122.073 166.255 122.242 166.287C122.411 166.313 122.529 166.342 122.594 166.375ZM126.227 166.434V177H124.41V166.434H126.227ZM124.273 163.631C124.273 163.338 124.361 163.09 124.537 162.889C124.719 162.687 124.986 162.586 125.338 162.586C125.683 162.586 125.947 162.687 126.129 162.889C126.318 163.09 126.412 163.338 126.412 163.631C126.412 163.911 126.318 164.152 126.129 164.354C125.947 164.549 125.683 164.646 125.338 164.646C124.986 164.646 124.719 164.549 124.537 164.354C124.361 164.152 124.273 163.911 124.273 163.631ZM128.648 171.834V171.609C128.648 170.848 128.759 170.141 128.98 169.49C129.202 168.833 129.521 168.263 129.938 167.781C130.354 167.293 130.859 166.915 131.451 166.648C132.044 166.375 132.708 166.238 133.443 166.238C134.186 166.238 134.853 166.375 135.445 166.648C136.044 166.915 136.552 167.293 136.969 167.781C137.392 168.263 137.714 168.833 137.936 169.49C138.157 170.141 138.268 170.848 138.268 171.609V171.834C138.268 172.596 138.157 173.302 137.936 173.953C137.714 174.604 137.392 175.174 136.969 175.662C136.552 176.144 136.048 176.521 135.455 176.795C134.869 177.062 134.205 177.195 133.463 177.195C132.721 177.195 132.053 177.062 131.461 176.795C130.868 176.521 130.361 176.144 129.938 175.662C129.521 175.174 129.202 174.604 128.98 173.953C128.759 173.302 128.648 172.596 128.648 171.834ZM130.455 171.609V171.834C130.455 172.361 130.517 172.859 130.641 173.328C130.764 173.79 130.95 174.201 131.197 174.559C131.451 174.917 131.767 175.2 132.145 175.408C132.522 175.61 132.962 175.711 133.463 175.711C133.958 175.711 134.391 175.61 134.762 175.408C135.139 175.2 135.452 174.917 135.699 174.559C135.947 174.201 136.132 173.79 136.256 173.328C136.386 172.859 136.451 172.361 136.451 171.834V171.609C136.451 171.089 136.386 170.597 136.256 170.135C136.132 169.666 135.943 169.253 135.689 168.895C135.442 168.53 135.13 168.243 134.752 168.035C134.381 167.827 133.945 167.723 133.443 167.723C132.949 167.723 132.512 167.827 132.135 168.035C131.764 168.243 131.451 168.53 131.197 168.895C130.95 169.253 130.764 169.666 130.641 170.135C130.517 170.597 130.455 171.089 130.455 171.609Z" fill="black"/>
<path d="M71.8945 342.424H68.0957V340.891H71.8945C72.6302 340.891 73.2259 340.773 73.6816 340.539C74.1374 340.305 74.4694 339.979 74.6777 339.562C74.8926 339.146 75 338.671 75 338.137C75 337.648 74.8926 337.189 74.6777 336.76C74.4694 336.33 74.1374 335.985 73.6816 335.725C73.2259 335.458 72.6302 335.324 71.8945 335.324H68.5352V348H66.6504V333.781H71.8945C72.9688 333.781 73.877 333.967 74.6191 334.338C75.3613 334.709 75.9245 335.223 76.3086 335.881C76.6927 336.532 76.8848 337.277 76.8848 338.117C76.8848 339.029 76.6927 339.807 76.3086 340.451C75.9245 341.096 75.3613 341.587 74.6191 341.926C73.877 342.258 72.9688 342.424 71.8945 342.424ZM83.2422 348.195C82.5065 348.195 81.8392 348.072 81.2402 347.824C80.6478 347.57 80.1367 347.215 79.707 346.76C79.2839 346.304 78.9583 345.764 78.7305 345.139C78.5026 344.514 78.3887 343.83 78.3887 343.088V342.678C78.3887 341.818 78.5156 341.053 78.7695 340.383C79.0234 339.706 79.3685 339.133 79.8047 338.664C80.2409 338.195 80.7357 337.84 81.2891 337.6C81.8424 337.359 82.4154 337.238 83.0078 337.238C83.763 337.238 84.4141 337.368 84.9609 337.629C85.5143 337.889 85.9668 338.254 86.3184 338.723C86.6699 339.185 86.9303 339.732 87.0996 340.363C87.2689 340.988 87.3535 341.672 87.3535 342.414V343.225H79.4629V341.75H85.5469V341.613C85.5208 341.145 85.4232 340.689 85.2539 340.246C85.0911 339.803 84.8307 339.439 84.4727 339.152C84.1146 338.866 83.6263 338.723 83.0078 338.723C82.5977 338.723 82.2201 338.811 81.875 338.986C81.5299 339.156 81.2337 339.41 80.9863 339.748C80.7389 340.087 80.5469 340.5 80.4102 340.988C80.2734 341.477 80.2051 342.04 80.2051 342.678V343.088C80.2051 343.589 80.2734 344.061 80.4102 344.504C80.5534 344.94 80.7585 345.324 81.0254 345.656C81.2988 345.988 81.6276 346.249 82.0117 346.438C82.4023 346.626 82.8451 346.721 83.3398 346.721C83.9779 346.721 84.5182 346.59 84.9609 346.33C85.4036 346.07 85.791 345.721 86.123 345.285L87.2168 346.154C86.9889 346.499 86.6992 346.828 86.3477 347.141C85.9961 347.453 85.5632 347.707 85.0488 347.902C84.541 348.098 83.9388 348.195 83.2422 348.195ZM95.6152 345.197C95.6152 344.937 95.5566 344.696 95.4395 344.475C95.3288 344.247 95.0977 344.042 94.7461 343.859C94.401 343.671 93.8802 343.508 93.1836 343.371C92.5977 343.247 92.0671 343.101 91.5918 342.932C91.123 342.762 90.7227 342.557 90.3906 342.316C90.0651 342.076 89.8145 341.792 89.6387 341.467C89.4629 341.141 89.375 340.76 89.375 340.324C89.375 339.908 89.4661 339.514 89.6484 339.143C89.8372 338.771 90.1009 338.443 90.4395 338.156C90.7845 337.87 91.1979 337.645 91.6797 337.482C92.1615 337.32 92.6986 337.238 93.291 337.238C94.1374 337.238 94.86 337.388 95.459 337.688C96.0579 337.987 96.5169 338.387 96.8359 338.889C97.1549 339.383 97.3145 339.934 97.3145 340.539H95.5078C95.5078 340.246 95.4199 339.963 95.2441 339.689C95.0749 339.41 94.8242 339.178 94.4922 338.996C94.1667 338.814 93.7663 338.723 93.291 338.723C92.7897 338.723 92.3828 338.801 92.0703 338.957C91.7643 339.107 91.5397 339.299 91.3965 339.533C91.2598 339.768 91.1914 340.015 91.1914 340.275C91.1914 340.471 91.224 340.646 91.2891 340.803C91.3607 340.952 91.4844 341.092 91.6602 341.223C91.8359 341.346 92.0833 341.464 92.4023 341.574C92.7214 341.685 93.1283 341.796 93.623 341.906C94.4889 342.102 95.2018 342.336 95.7617 342.609C96.3216 342.883 96.7383 343.218 97.0117 343.615C97.2852 344.012 97.4219 344.494 97.4219 345.061C97.4219 345.523 97.3242 345.946 97.1289 346.33C96.9401 346.714 96.6634 347.046 96.2988 347.326C95.9408 347.6 95.5111 347.814 95.0098 347.971C94.515 348.12 93.9583 348.195 93.3398 348.195C92.4089 348.195 91.6211 348.029 90.9766 347.697C90.332 347.365 89.8438 346.936 89.5117 346.408C89.1797 345.881 89.0137 345.324 89.0137 344.738H90.8301C90.8561 345.233 90.9993 345.627 91.2598 345.92C91.5202 346.206 91.8392 346.411 92.2168 346.535C92.5944 346.652 92.9688 346.711 93.3398 346.711C93.8346 346.711 94.248 346.646 94.5801 346.516C94.9186 346.385 95.1758 346.206 95.3516 345.979C95.5273 345.751 95.6152 345.49 95.6152 345.197ZM99.3164 342.834V342.609C99.3164 341.848 99.4271 341.141 99.6484 340.49C99.8698 339.833 100.189 339.263 100.605 338.781C101.022 338.293 101.527 337.915 102.119 337.648C102.712 337.375 103.376 337.238 104.111 337.238C104.854 337.238 105.521 337.375 106.113 337.648C106.712 337.915 107.22 338.293 107.637 338.781C108.06 339.263 108.382 339.833 108.604 340.49C108.825 341.141 108.936 341.848 108.936 342.609V342.834C108.936 343.596 108.825 344.302 108.604 344.953C108.382 345.604 108.06 346.174 107.637 346.662C107.22 347.144 106.715 347.521 106.123 347.795C105.537 348.062 104.873 348.195 104.131 348.195C103.389 348.195 102.721 348.062 102.129 347.795C101.536 347.521 101.029 347.144 100.605 346.662C100.189 346.174 99.8698 345.604 99.6484 344.953C99.4271 344.302 99.3164 343.596 99.3164 342.834ZM101.123 342.609V342.834C101.123 343.361 101.185 343.859 101.309 344.328C101.432 344.79 101.618 345.201 101.865 345.559C102.119 345.917 102.435 346.2 102.812 346.408C103.19 346.61 103.63 346.711 104.131 346.711C104.626 346.711 105.059 346.61 105.43 346.408C105.807 346.2 106.12 345.917 106.367 345.559C106.615 345.201 106.8 344.79 106.924 344.328C107.054 343.859 107.119 343.361 107.119 342.834V342.609C107.119 342.089 107.054 341.597 106.924 341.135C106.8 340.666 106.611 340.253 106.357 339.895C106.11 339.53 105.798 339.243 105.42 339.035C105.049 338.827 104.613 338.723 104.111 338.723C103.617 338.723 103.18 338.827 102.803 339.035C102.432 339.243 102.119 339.53 101.865 339.895C101.618 340.253 101.432 340.666 101.309 341.135C101.185 341.597 101.123 342.089 101.123 342.609Z" fill="black"/>
<path d="M58.2402 402.842L62.4297 390.781H64.4707L59.207 405H57.752L58.2402 402.842ZM54.3242 390.781L58.4746 402.842L58.9922 405H57.5371L52.2832 390.781H54.3242ZM71.8926 403.193V397.754C71.8926 397.337 71.8079 396.976 71.6387 396.67C71.4759 396.357 71.2285 396.117 70.8965 395.947C70.5645 395.778 70.1543 395.693 69.666 395.693C69.2103 395.693 68.8099 395.771 68.4648 395.928C68.1263 396.084 67.8594 396.289 67.6641 396.543C67.4753 396.797 67.3809 397.07 67.3809 397.363H65.5742C65.5742 396.986 65.6719 396.611 65.8672 396.24C66.0625 395.869 66.3424 395.534 66.707 395.234C67.0781 394.928 67.5208 394.688 68.0352 394.512C68.556 394.329 69.1354 394.238 69.7734 394.238C70.5417 394.238 71.2188 394.368 71.8047 394.629C72.3971 394.889 72.8594 395.283 73.1914 395.811C73.5299 396.331 73.6992 396.986 73.6992 397.773V402.695C73.6992 403.047 73.7285 403.421 73.7871 403.818C73.8522 404.215 73.9466 404.557 74.0703 404.844V405H72.1855C72.0944 404.792 72.0228 404.515 71.9707 404.17C71.9186 403.818 71.8926 403.493 71.8926 403.193ZM72.2051 398.594L72.2246 399.863H70.3984C69.8841 399.863 69.4251 399.906 69.0215 399.99C68.6178 400.068 68.2793 400.189 68.0059 400.352C67.7324 400.514 67.5241 400.719 67.3809 400.967C67.2376 401.208 67.166 401.491 67.166 401.816C67.166 402.148 67.2409 402.451 67.3906 402.725C67.5404 402.998 67.765 403.216 68.0645 403.379C68.3704 403.535 68.7448 403.613 69.1875 403.613C69.7409 403.613 70.2292 403.496 70.6523 403.262C71.0755 403.027 71.4108 402.741 71.6582 402.402C71.9121 402.064 72.0488 401.735 72.0684 401.416L72.8398 402.285C72.7943 402.559 72.6706 402.861 72.4688 403.193C72.2669 403.525 71.9967 403.844 71.6582 404.15C71.3262 404.45 70.929 404.701 70.4668 404.902C70.0111 405.098 69.4967 405.195 68.9238 405.195C68.2077 405.195 67.5794 405.055 67.0391 404.775C66.5052 404.495 66.0885 404.121 65.7891 403.652C65.4961 403.177 65.3496 402.646 65.3496 402.061C65.3496 401.494 65.4603 400.996 65.6816 400.566C65.903 400.13 66.222 399.769 66.6387 399.482C67.0553 399.189 67.5566 398.968 68.1426 398.818C68.7285 398.669 69.3828 398.594 70.1055 398.594H72.2051ZM80.7695 403.711C81.1992 403.711 81.5964 403.623 81.9609 403.447C82.3255 403.271 82.625 403.031 82.8594 402.725C83.0938 402.412 83.2272 402.057 83.2598 401.66H84.9785C84.946 402.285 84.7344 402.868 84.3438 403.408C83.9596 403.942 83.4551 404.375 82.8301 404.707C82.2051 405.033 81.5182 405.195 80.7695 405.195C79.9753 405.195 79.2819 405.055 78.6895 404.775C78.1035 404.495 77.6152 404.111 77.2246 403.623C76.8405 403.135 76.5508 402.575 76.3555 401.943C76.1667 401.305 76.0723 400.632 76.0723 399.922V399.512C76.0723 398.802 76.1667 398.132 76.3555 397.5C76.5508 396.862 76.8405 396.299 77.2246 395.811C77.6152 395.322 78.1035 394.938 78.6895 394.658C79.2819 394.378 79.9753 394.238 80.7695 394.238C81.5964 394.238 82.319 394.408 82.9375 394.746C83.556 395.078 84.041 395.534 84.3926 396.113C84.7507 396.686 84.946 397.337 84.9785 398.066H83.2598C83.2272 397.63 83.1035 397.236 82.8887 396.885C82.6803 396.533 82.3939 396.253 82.0293 396.045C81.6712 395.83 81.2513 395.723 80.7695 395.723C80.2161 395.723 79.7507 395.833 79.373 396.055C79.002 396.27 78.7057 396.562 78.4844 396.934C78.2695 397.298 78.1133 397.705 78.0156 398.154C77.9245 398.597 77.8789 399.049 77.8789 399.512V399.922C77.8789 400.384 77.9245 400.84 78.0156 401.289C78.1068 401.738 78.2598 402.145 78.4746 402.51C78.696 402.874 78.9922 403.167 79.3633 403.389C79.7409 403.604 80.2096 403.711 80.7695 403.711ZM88.9727 394.434V405H87.1562V394.434H88.9727ZM87.0195 391.631C87.0195 391.338 87.1074 391.09 87.2832 390.889C87.4655 390.687 87.7324 390.586 88.084 390.586C88.429 390.586 88.6927 390.687 88.875 390.889C89.0638 391.09 89.1582 391.338 89.1582 391.631C89.1582 391.911 89.0638 392.152 88.875 392.354C88.6927 392.549 88.429 392.646 88.084 392.646C87.7324 392.646 87.4655 392.549 87.2832 392.354C87.1074 392.152 87.0195 391.911 87.0195 391.631ZM93.6797 396.689V405H91.873V394.434H93.582L93.6797 396.689ZM93.25 399.316L92.498 399.287C92.5046 398.564 92.612 397.897 92.8203 397.285C93.0286 396.667 93.3216 396.13 93.6992 395.674C94.0768 395.218 94.526 394.867 95.0469 394.619C95.5742 394.365 96.1569 394.238 96.7949 394.238C97.3158 394.238 97.7845 394.31 98.2012 394.453C98.6178 394.59 98.9727 394.811 99.2656 395.117C99.5651 395.423 99.793 395.82 99.9492 396.309C100.105 396.79 100.184 397.38 100.184 398.076V405H98.3672V398.057C98.3672 397.503 98.2858 397.061 98.123 396.729C97.9603 396.39 97.7227 396.146 97.4102 395.996C97.0977 395.84 96.7135 395.762 96.2578 395.762C95.8086 395.762 95.3984 395.856 95.0273 396.045C94.6628 396.234 94.347 396.494 94.0801 396.826C93.8197 397.158 93.6146 397.539 93.4648 397.969C93.3216 398.392 93.25 398.841 93.25 399.316ZM109.158 403.193V397.754C109.158 397.337 109.074 396.976 108.904 396.67C108.742 396.357 108.494 396.117 108.162 395.947C107.83 395.778 107.42 395.693 106.932 395.693C106.476 395.693 106.076 395.771 105.73 395.928C105.392 396.084 105.125 396.289 104.93 396.543C104.741 396.797 104.646 397.07 104.646 397.363H102.84C102.84 396.986 102.938 396.611 103.133 396.24C103.328 395.869 103.608 395.534 103.973 395.234C104.344 394.928 104.786 394.688 105.301 394.512C105.822 394.329 106.401 394.238 107.039 394.238C107.807 394.238 108.484 394.368 109.07 394.629C109.663 394.889 110.125 395.283 110.457 395.811C110.796 396.331 110.965 396.986 110.965 397.773V402.695C110.965 403.047 110.994 403.421 111.053 403.818C111.118 404.215 111.212 404.557 111.336 404.844V405H109.451C109.36 404.792 109.288 404.515 109.236 404.17C109.184 403.818 109.158 403.493 109.158 403.193ZM109.471 398.594L109.49 399.863H107.664C107.15 399.863 106.691 399.906 106.287 399.99C105.883 400.068 105.545 400.189 105.271 400.352C104.998 400.514 104.79 400.719 104.646 400.967C104.503 401.208 104.432 401.491 104.432 401.816C104.432 402.148 104.507 402.451 104.656 402.725C104.806 402.998 105.031 403.216 105.33 403.379C105.636 403.535 106.01 403.613 106.453 403.613C107.007 403.613 107.495 403.496 107.918 403.262C108.341 403.027 108.676 402.741 108.924 402.402C109.178 402.064 109.314 401.735 109.334 401.416L110.105 402.285C110.06 402.559 109.936 402.861 109.734 403.193C109.533 403.525 109.262 403.844 108.924 404.15C108.592 404.45 108.195 404.701 107.732 404.902C107.277 405.098 106.762 405.195 106.189 405.195C105.473 405.195 104.845 405.055 104.305 404.775C103.771 404.495 103.354 404.121 103.055 403.652C102.762 403.177 102.615 402.646 102.615 402.061C102.615 401.494 102.726 400.996 102.947 400.566C103.169 400.13 103.488 399.769 103.904 399.482C104.321 399.189 104.822 398.968 105.408 398.818C105.994 398.669 106.648 398.594 107.371 398.594H109.471ZM119.959 402.197C119.959 401.937 119.9 401.696 119.783 401.475C119.673 401.247 119.441 401.042 119.09 400.859C118.745 400.671 118.224 400.508 117.527 400.371C116.941 400.247 116.411 400.101 115.936 399.932C115.467 399.762 115.066 399.557 114.734 399.316C114.409 399.076 114.158 398.792 113.982 398.467C113.807 398.141 113.719 397.76 113.719 397.324C113.719 396.908 113.81 396.514 113.992 396.143C114.181 395.771 114.445 395.443 114.783 395.156C115.128 394.87 115.542 394.645 116.023 394.482C116.505 394.32 117.042 394.238 117.635 394.238C118.481 394.238 119.204 394.388 119.803 394.688C120.402 394.987 120.861 395.387 121.18 395.889C121.499 396.383 121.658 396.934 121.658 397.539H119.852C119.852 397.246 119.764 396.963 119.588 396.689C119.419 396.41 119.168 396.178 118.836 395.996C118.51 395.814 118.11 395.723 117.635 395.723C117.133 395.723 116.727 395.801 116.414 395.957C116.108 396.107 115.883 396.299 115.74 396.533C115.604 396.768 115.535 397.015 115.535 397.275C115.535 397.471 115.568 397.646 115.633 397.803C115.704 397.952 115.828 398.092 116.004 398.223C116.18 398.346 116.427 398.464 116.746 398.574C117.065 398.685 117.472 398.796 117.967 398.906C118.833 399.102 119.546 399.336 120.105 399.609C120.665 399.883 121.082 400.218 121.355 400.615C121.629 401.012 121.766 401.494 121.766 402.061C121.766 402.523 121.668 402.946 121.473 403.33C121.284 403.714 121.007 404.046 120.643 404.326C120.285 404.6 119.855 404.814 119.354 404.971C118.859 405.12 118.302 405.195 117.684 405.195C116.753 405.195 115.965 405.029 115.32 404.697C114.676 404.365 114.188 403.936 113.855 403.408C113.523 402.881 113.357 402.324 113.357 401.738H115.174C115.2 402.233 115.343 402.627 115.604 402.92C115.864 403.206 116.183 403.411 116.561 403.535C116.938 403.652 117.312 403.711 117.684 403.711C118.178 403.711 118.592 403.646 118.924 403.516C119.262 403.385 119.52 403.206 119.695 402.979C119.871 402.751 119.959 402.49 119.959 402.197Z" fill="black"/>
<path d="M49.6836 232.467V234H42.1543V232.467H49.6836ZM42.5352 219.781V234H40.6504V219.781H42.5352ZM48.6875 225.895V227.428H42.1543V225.895H48.6875ZM49.5859 219.781V221.324H42.1543V219.781H49.5859ZM57.8965 231.197C57.8965 230.937 57.8379 230.696 57.7207 230.475C57.61 230.247 57.3789 230.042 57.0273 229.859C56.6823 229.671 56.1615 229.508 55.4648 229.371C54.8789 229.247 54.3483 229.101 53.873 228.932C53.4043 228.762 53.0039 228.557 52.6719 228.316C52.3464 228.076 52.0957 227.792 51.9199 227.467C51.7441 227.141 51.6562 226.76 51.6562 226.324C51.6562 225.908 51.7474 225.514 51.9297 225.143C52.1185 224.771 52.3822 224.443 52.7207 224.156C53.0658 223.87 53.4792 223.645 53.9609 223.482C54.4427 223.32 54.9798 223.238 55.5723 223.238C56.4186 223.238 57.1413 223.388 57.7402 223.688C58.3392 223.987 58.7982 224.387 59.1172 224.889C59.4362 225.383 59.5957 225.934 59.5957 226.539H57.7891C57.7891 226.246 57.7012 225.963 57.5254 225.689C57.3561 225.41 57.1055 225.178 56.7734 224.996C56.4479 224.814 56.0475 224.723 55.5723 224.723C55.071 224.723 54.6641 224.801 54.3516 224.957C54.0456 225.107 53.821 225.299 53.6777 225.533C53.541 225.768 53.4727 226.015 53.4727 226.275C53.4727 226.471 53.5052 226.646 53.5703 226.803C53.6419 226.952 53.7656 227.092 53.9414 227.223C54.1172 227.346 54.3646 227.464 54.6836 227.574C55.0026 227.685 55.4095 227.796 55.9043 227.906C56.7702 228.102 57.4831 228.336 58.043 228.609C58.6029 228.883 59.0195 229.218 59.293 229.615C59.5664 230.012 59.7031 230.494 59.7031 231.061C59.7031 231.523 59.6055 231.946 59.4102 232.33C59.2214 232.714 58.9447 233.046 58.5801 233.326C58.222 233.6 57.7923 233.814 57.291 233.971C56.7962 234.12 56.2396 234.195 55.6211 234.195C54.6901 234.195 53.9023 234.029 53.2578 233.697C52.6133 233.365 52.125 232.936 51.793 232.408C51.4609 231.881 51.2949 231.324 51.2949 230.738H53.1113C53.1374 231.233 53.2806 231.627 53.541 231.92C53.8014 232.206 54.1204 232.411 54.498 232.535C54.8757 232.652 55.25 232.711 55.6211 232.711C56.1159 232.711 56.5293 232.646 56.8613 232.516C57.1999 232.385 57.457 232.206 57.6328 231.979C57.8086 231.751 57.8965 231.49 57.8965 231.197ZM63.8828 225.465V238.062H62.0664V223.434H63.7266L63.8828 225.465ZM71.002 228.629V228.834C71.002 229.602 70.9108 230.315 70.7285 230.973C70.5462 231.624 70.2793 232.19 69.9277 232.672C69.5827 233.154 69.1562 233.528 68.6484 233.795C68.1406 234.062 67.5579 234.195 66.9004 234.195C66.2298 234.195 65.6374 234.085 65.123 233.863C64.6087 233.642 64.1725 233.32 63.8145 232.896C63.4564 232.473 63.1699 231.965 62.9551 231.373C62.7467 230.781 62.6035 230.113 62.5254 229.371V228.277C62.6035 227.496 62.75 226.796 62.9648 226.178C63.1797 225.559 63.4629 225.032 63.8145 224.596C64.1725 224.153 64.6055 223.818 65.1133 223.59C65.6211 223.355 66.207 223.238 66.8711 223.238C67.5352 223.238 68.1243 223.368 68.6387 223.629C69.153 223.883 69.5859 224.247 69.9375 224.723C70.2891 225.198 70.5527 225.768 70.7285 226.432C70.9108 227.089 71.002 227.822 71.002 228.629ZM69.1855 228.834V228.629C69.1855 228.102 69.1302 227.607 69.0195 227.145C68.9089 226.676 68.7363 226.266 68.502 225.914C68.2741 225.556 67.9811 225.276 67.623 225.074C67.265 224.866 66.8385 224.762 66.3438 224.762C65.888 224.762 65.4909 224.84 65.1523 224.996C64.8203 225.152 64.5371 225.364 64.3027 225.631C64.0684 225.891 63.8763 226.191 63.7266 226.529C63.5833 226.861 63.4759 227.206 63.4043 227.564V230.094C63.5345 230.549 63.7168 230.979 63.9512 231.383C64.1855 231.78 64.498 232.102 64.8887 232.35C65.2793 232.59 65.7708 232.711 66.3633 232.711C66.8516 232.711 67.2715 232.61 67.623 232.408C67.9811 232.2 68.2741 231.917 68.502 231.559C68.7363 231.201 68.9089 230.79 69.0195 230.328C69.1302 229.859 69.1855 229.361 69.1855 228.834ZM77.6914 234.195C76.9557 234.195 76.2884 234.072 75.6895 233.824C75.097 233.57 74.5859 233.215 74.1562 232.76C73.7331 232.304 73.4076 231.764 73.1797 231.139C72.9518 230.514 72.8379 229.83 72.8379 229.088V228.678C72.8379 227.818 72.9648 227.053 73.2188 226.383C73.4727 225.706 73.8177 225.133 74.2539 224.664C74.6901 224.195 75.1849 223.84 75.7383 223.6C76.2917 223.359 76.8646 223.238 77.457 223.238C78.2122 223.238 78.8633 223.368 79.4102 223.629C79.9635 223.889 80.416 224.254 80.7676 224.723C81.1191 225.185 81.3796 225.732 81.5488 226.363C81.7181 226.988 81.8027 227.672 81.8027 228.414V229.225H73.9121V227.75H79.9961V227.613C79.9701 227.145 79.8724 226.689 79.7031 226.246C79.5404 225.803 79.2799 225.439 78.9219 225.152C78.5638 224.866 78.0755 224.723 77.457 224.723C77.0469 224.723 76.6693 224.811 76.3242 224.986C75.9792 225.156 75.6829 225.41 75.4355 225.748C75.1882 226.087 74.9961 226.5 74.8594 226.988C74.7227 227.477 74.6543 228.04 74.6543 228.678V229.088C74.6543 229.589 74.7227 230.061 74.8594 230.504C75.0026 230.94 75.2077 231.324 75.4746 231.656C75.748 231.988 76.0768 232.249 76.4609 232.438C76.8516 232.626 77.2943 232.721 77.7891 232.721C78.4271 232.721 78.9674 232.59 79.4102 232.33C79.8529 232.07 80.2402 231.721 80.5723 231.285L81.666 232.154C81.4382 232.499 81.1484 232.828 80.7969 233.141C80.4453 233.453 80.0124 233.707 79.498 233.902C78.9902 234.098 78.388 234.195 77.6914 234.195ZM76.4512 221.871L78.3457 219H80.5234L77.9062 221.871H76.4512ZM88.1406 232.711C88.5703 232.711 88.9674 232.623 89.332 232.447C89.6966 232.271 89.9961 232.031 90.2305 231.725C90.4648 231.412 90.5983 231.057 90.6309 230.66H92.3496C92.3171 231.285 92.1055 231.868 91.7148 232.408C91.3307 232.942 90.8262 233.375 90.2012 233.707C89.5762 234.033 88.8893 234.195 88.1406 234.195C87.3464 234.195 86.653 234.055 86.0605 233.775C85.4746 233.495 84.9863 233.111 84.5957 232.623C84.2116 232.135 83.9219 231.575 83.7266 230.943C83.5378 230.305 83.4434 229.632 83.4434 228.922V228.512C83.4434 227.802 83.5378 227.132 83.7266 226.5C83.9219 225.862 84.2116 225.299 84.5957 224.811C84.9863 224.322 85.4746 223.938 86.0605 223.658C86.653 223.378 87.3464 223.238 88.1406 223.238C88.9674 223.238 89.6901 223.408 90.3086 223.746C90.9271 224.078 91.4121 224.534 91.7637 225.113C92.1217 225.686 92.3171 226.337 92.3496 227.066H90.6309C90.5983 226.63 90.4746 226.236 90.2598 225.885C90.0514 225.533 89.765 225.253 89.4004 225.045C89.0423 224.83 88.6224 224.723 88.1406 224.723C87.5872 224.723 87.1217 224.833 86.7441 225.055C86.373 225.27 86.0768 225.562 85.8555 225.934C85.6406 226.298 85.4844 226.705 85.3867 227.154C85.2956 227.597 85.25 228.049 85.25 228.512V228.922C85.25 229.384 85.2956 229.84 85.3867 230.289C85.4779 230.738 85.6309 231.145 85.8457 231.51C86.0671 231.874 86.3633 232.167 86.7344 232.389C87.112 232.604 87.5807 232.711 88.1406 232.711ZM96.3438 223.434V234H94.5273V223.434H96.3438ZM94.3906 220.631C94.3906 220.338 94.4785 220.09 94.6543 219.889C94.8366 219.687 95.1035 219.586 95.4551 219.586C95.8001 219.586 96.0638 219.687 96.2461 219.889C96.4349 220.09 96.5293 220.338 96.5293 220.631C96.5293 220.911 96.4349 221.152 96.2461 221.354C96.0638 221.549 95.8001 221.646 95.4551 221.646C95.1035 221.646 94.8366 221.549 94.6543 221.354C94.4785 221.152 94.3906 220.911 94.3906 220.631ZM103.629 234.195C102.893 234.195 102.226 234.072 101.627 233.824C101.035 233.57 100.523 233.215 100.094 232.76C99.6706 232.304 99.3451 231.764 99.1172 231.139C98.8893 230.514 98.7754 229.83 98.7754 229.088V228.678C98.7754 227.818 98.9023 227.053 99.1562 226.383C99.4102 225.706 99.7552 225.133 100.191 224.664C100.628 224.195 101.122 223.84 101.676 223.6C102.229 223.359 102.802 223.238 103.395 223.238C104.15 223.238 104.801 223.368 105.348 223.629C105.901 223.889 106.354 224.254 106.705 224.723C107.057 225.185 107.317 225.732 107.486 226.363C107.656 226.988 107.74 227.672 107.74 228.414V229.225H99.8496V227.75H105.934V227.613C105.908 227.145 105.81 226.689 105.641 226.246C105.478 225.803 105.217 225.439 104.859 225.152C104.501 224.866 104.013 224.723 103.395 224.723C102.984 224.723 102.607 224.811 102.262 224.986C101.917 225.156 101.62 225.41 101.373 225.748C101.126 226.087 100.934 226.5 100.797 226.988C100.66 227.477 100.592 228.04 100.592 228.678V229.088C100.592 229.589 100.66 230.061 100.797 230.504C100.94 230.94 101.145 231.324 101.412 231.656C101.686 231.988 102.014 232.249 102.398 232.438C102.789 232.626 103.232 232.721 103.727 232.721C104.365 232.721 104.905 232.59 105.348 232.33C105.79 232.07 106.178 231.721 106.51 231.285L107.604 232.154C107.376 232.499 107.086 232.828 106.734 233.141C106.383 233.453 105.95 233.707 105.436 233.902C104.928 234.098 104.326 234.195 103.629 234.195Z" fill="black"/>
<path d="M40.6504 276.781H45.3574C46.4251 276.781 47.3268 276.944 48.0625 277.27C48.8047 277.595 49.3678 278.077 49.752 278.715C50.1426 279.346 50.3379 280.124 50.3379 281.049C50.3379 281.7 50.2044 282.296 49.9375 282.836C49.6771 283.37 49.2995 283.826 48.8047 284.203C48.3164 284.574 47.7305 284.851 47.0469 285.033L46.5195 285.238H42.0957L42.0762 283.705H45.416C46.0931 283.705 46.6562 283.588 47.1055 283.354C47.5547 283.113 47.8932 282.79 48.1211 282.387C48.349 281.983 48.4629 281.537 48.4629 281.049C48.4629 280.502 48.3555 280.023 48.1406 279.613C47.9258 279.203 47.5872 278.887 47.125 278.666C46.6693 278.438 46.0801 278.324 45.3574 278.324H42.5352V291H40.6504V276.781ZM48.9609 291L45.5039 284.555L47.4668 284.545L50.9727 290.883V291H48.9609ZM58.9316 289.193V283.754C58.9316 283.337 58.847 282.976 58.6777 282.67C58.515 282.357 58.2676 282.117 57.9355 281.947C57.6035 281.778 57.1934 281.693 56.7051 281.693C56.2493 281.693 55.849 281.771 55.5039 281.928C55.1654 282.084 54.8984 282.289 54.7031 282.543C54.5143 282.797 54.4199 283.07 54.4199 283.363H52.6133C52.6133 282.986 52.7109 282.611 52.9062 282.24C53.1016 281.869 53.3815 281.534 53.7461 281.234C54.1172 280.928 54.5599 280.688 55.0742 280.512C55.5951 280.329 56.1745 280.238 56.8125 280.238C57.5807 280.238 58.2578 280.368 58.8438 280.629C59.4362 280.889 59.8984 281.283 60.2305 281.811C60.569 282.331 60.7383 282.986 60.7383 283.773V288.695C60.7383 289.047 60.7676 289.421 60.8262 289.818C60.8913 290.215 60.9857 290.557 61.1094 290.844V291H59.2246C59.1335 290.792 59.0618 290.515 59.0098 290.17C58.9577 289.818 58.9316 289.493 58.9316 289.193ZM59.2441 284.594L59.2637 285.863H57.4375C56.9232 285.863 56.4642 285.906 56.0605 285.99C55.6569 286.068 55.3184 286.189 55.0449 286.352C54.7715 286.514 54.5632 286.719 54.4199 286.967C54.2767 287.208 54.2051 287.491 54.2051 287.816C54.2051 288.148 54.2799 288.451 54.4297 288.725C54.5794 288.998 54.804 289.216 55.1035 289.379C55.4095 289.535 55.7839 289.613 56.2266 289.613C56.7799 289.613 57.2682 289.496 57.6914 289.262C58.1146 289.027 58.4499 288.741 58.6973 288.402C58.9512 288.064 59.0879 287.735 59.1074 287.416L59.8789 288.285C59.8333 288.559 59.7096 288.861 59.5078 289.193C59.306 289.525 59.0358 289.844 58.6973 290.15C58.3652 290.45 57.9681 290.701 57.5059 290.902C57.0501 291.098 56.5358 291.195 55.9629 291.195C55.2467 291.195 54.6185 291.055 54.0781 290.775C53.5443 290.495 53.1276 290.121 52.8281 289.652C52.5352 289.177 52.3887 288.646 52.3887 288.061C52.3887 287.494 52.4993 286.996 52.7207 286.566C52.9421 286.13 53.2611 285.769 53.6777 285.482C54.0944 285.189 54.5957 284.968 55.1816 284.818C55.7676 284.669 56.4219 284.594 57.1445 284.594H59.2441ZM67.8086 289.711C68.2383 289.711 68.6354 289.623 69 289.447C69.3646 289.271 69.6641 289.031 69.8984 288.725C70.1328 288.412 70.2663 288.057 70.2988 287.66H72.0176C71.985 288.285 71.7734 288.868 71.3828 289.408C70.9987 289.942 70.4941 290.375 69.8691 290.707C69.2441 291.033 68.5573 291.195 67.8086 291.195C67.0143 291.195 66.321 291.055 65.7285 290.775C65.1426 290.495 64.6543 290.111 64.2637 289.623C63.8796 289.135 63.5898 288.575 63.3945 287.943C63.2057 287.305 63.1113 286.632 63.1113 285.922V285.512C63.1113 284.802 63.2057 284.132 63.3945 283.5C63.5898 282.862 63.8796 282.299 64.2637 281.811C64.6543 281.322 65.1426 280.938 65.7285 280.658C66.321 280.378 67.0143 280.238 67.8086 280.238C68.6354 280.238 69.3581 280.408 69.9766 280.746C70.5951 281.078 71.0801 281.534 71.4316 282.113C71.7897 282.686 71.985 283.337 72.0176 284.066H70.2988C70.2663 283.63 70.1426 283.236 69.9277 282.885C69.7194 282.533 69.4329 282.253 69.0684 282.045C68.7103 281.83 68.2904 281.723 67.8086 281.723C67.2552 281.723 66.7897 281.833 66.4121 282.055C66.041 282.27 65.7448 282.562 65.5234 282.934C65.3086 283.298 65.1523 283.705 65.0547 284.154C64.9635 284.597 64.918 285.049 64.918 285.512V285.922C64.918 286.384 64.9635 286.84 65.0547 287.289C65.1458 287.738 65.2988 288.145 65.5137 288.51C65.735 288.874 66.0312 289.167 66.4023 289.389C66.7799 289.604 67.2487 289.711 67.8086 289.711ZM66.8125 291.098H68.1113L67.9941 291.615C68.3717 291.68 68.7135 291.837 69.0195 292.084C69.332 292.331 69.4883 292.738 69.4883 293.305C69.4883 293.611 69.4232 293.887 69.293 294.135C69.1693 294.389 68.9837 294.604 68.7363 294.779C68.4889 294.962 68.1797 295.102 67.8086 295.199C67.444 295.297 67.0176 295.346 66.5293 295.346L66.4609 294.301C66.7604 294.301 67.0306 294.268 67.2715 294.203C67.5189 294.138 67.7142 294.034 67.8574 293.891C68.0072 293.747 68.082 293.562 68.082 293.334C68.082 293.119 68.0267 292.95 67.916 292.826C67.8053 292.702 67.6328 292.608 67.3984 292.543C67.1706 292.484 66.8743 292.442 66.5098 292.416L66.8125 291.098ZM80.2793 289.193V283.754C80.2793 283.337 80.1947 282.976 80.0254 282.67C79.8626 282.357 79.6152 282.117 79.2832 281.947C78.9512 281.778 78.541 281.693 78.0527 281.693C77.597 281.693 77.1966 281.771 76.8516 281.928C76.513 282.084 76.2461 282.289 76.0508 282.543C75.862 282.797 75.7676 283.07 75.7676 283.363H73.9609C73.9609 282.986 74.0586 282.611 74.2539 282.24C74.4492 281.869 74.7292 281.534 75.0938 281.234C75.4648 280.928 75.9076 280.688 76.4219 280.512C76.9427 280.329 77.5221 280.238 78.1602 280.238C78.9284 280.238 79.6055 280.368 80.1914 280.629C80.7839 280.889 81.2461 281.283 81.5781 281.811C81.9167 282.331 82.0859 282.986 82.0859 283.773V288.695C82.0859 289.047 82.1152 289.421 82.1738 289.818C82.2389 290.215 82.3333 290.557 82.457 290.844V291H80.5723C80.4811 290.792 80.4095 290.515 80.3574 290.17C80.3053 289.818 80.2793 289.493 80.2793 289.193ZM80.5918 284.594L80.6113 285.863H78.7852C78.2708 285.863 77.8118 285.906 77.4082 285.99C77.0046 286.068 76.666 286.189 76.3926 286.352C76.1191 286.514 75.9108 286.719 75.7676 286.967C75.6243 287.208 75.5527 287.491 75.5527 287.816C75.5527 288.148 75.6276 288.451 75.7773 288.725C75.9271 288.998 76.1517 289.216 76.4512 289.379C76.7572 289.535 77.1315 289.613 77.5742 289.613C78.1276 289.613 78.6159 289.496 79.0391 289.262C79.4622 289.027 79.7975 288.741 80.0449 288.402C80.2988 288.064 80.4355 287.735 80.4551 287.416L81.2266 288.285C81.181 288.559 81.0573 288.861 80.8555 289.193C80.6536 289.525 80.3835 289.844 80.0449 290.15C79.7129 290.45 79.3158 290.701 78.8535 290.902C78.3978 291.098 77.8835 291.195 77.3105 291.195C76.5944 291.195 75.9661 291.055 75.4258 290.775C74.8919 290.495 74.4753 290.121 74.1758 289.652C73.8828 289.177 73.7363 288.646 73.7363 288.061C73.7363 287.494 73.847 286.996 74.0684 286.566C74.2897 286.13 74.6087 285.769 75.0254 285.482C75.4421 285.189 75.9434 284.968 76.5293 284.818C77.1152 284.669 77.7695 284.594 78.4922 284.594H80.5918Z" fill="black"/>
<rect x="174.5" y="317.5" width="122" height="123" rx="15.5" fill="white" stroke="#DBA419"/>
<path d="M214.535 372.781V387H212.65V372.781H214.535ZM220.492 379.178V380.721H214.125V379.178H220.492ZM221.459 372.781V374.324H214.125V372.781H221.459ZM234.652 379.441V380.34C234.652 381.408 234.519 382.365 234.252 383.211C233.985 384.057 233.601 384.777 233.1 385.369C232.598 385.962 231.996 386.414 231.293 386.727C230.596 387.039 229.815 387.195 228.949 387.195C228.109 387.195 227.338 387.039 226.635 386.727C225.938 386.414 225.333 385.962 224.818 385.369C224.311 384.777 223.917 384.057 223.637 383.211C223.357 382.365 223.217 381.408 223.217 380.34V379.441C223.217 378.374 223.354 377.42 223.627 376.58C223.907 375.734 224.301 375.014 224.809 374.422C225.316 373.823 225.919 373.367 226.615 373.055C227.318 372.742 228.09 372.586 228.93 372.586C229.796 372.586 230.577 372.742 231.273 373.055C231.977 373.367 232.579 373.823 233.08 374.422C233.588 375.014 233.975 375.734 234.242 376.58C234.516 377.42 234.652 378.374 234.652 379.441ZM232.787 380.34V379.422C232.787 378.576 232.699 377.827 232.523 377.176C232.354 376.525 232.104 375.978 231.771 375.535C231.439 375.092 231.033 374.757 230.551 374.529C230.076 374.301 229.535 374.188 228.93 374.188C228.344 374.188 227.813 374.301 227.338 374.529C226.869 374.757 226.465 375.092 226.127 375.535C225.795 375.978 225.538 376.525 225.355 377.176C225.173 377.827 225.082 378.576 225.082 379.422V380.34C225.082 381.193 225.173 381.948 225.355 382.605C225.538 383.257 225.798 383.807 226.137 384.256C226.482 384.699 226.889 385.034 227.357 385.262C227.833 385.49 228.363 385.604 228.949 385.604C229.561 385.604 230.105 385.49 230.58 385.262C231.055 385.034 231.456 384.699 231.781 384.256C232.113 383.807 232.364 383.257 232.533 382.605C232.702 381.948 232.787 381.193 232.787 380.34ZM242.455 372.781V387H240.6V372.781H242.455ZM247.025 372.781V374.324H236.039V372.781H247.025ZM259.809 379.441V380.34C259.809 381.408 259.675 382.365 259.408 383.211C259.141 384.057 258.757 384.777 258.256 385.369C257.755 385.962 257.152 386.414 256.449 386.727C255.753 387.039 254.971 387.195 254.105 387.195C253.266 387.195 252.494 387.039 251.791 386.727C251.094 386.414 250.489 385.962 249.975 385.369C249.467 384.777 249.073 384.057 248.793 383.211C248.513 382.365 248.373 381.408 248.373 380.34V379.441C248.373 378.374 248.51 377.42 248.783 376.58C249.063 375.734 249.457 375.014 249.965 374.422C250.473 373.823 251.075 373.367 251.771 373.055C252.475 372.742 253.246 372.586 254.086 372.586C254.952 372.586 255.733 372.742 256.43 373.055C257.133 373.367 257.735 373.823 258.236 374.422C258.744 375.014 259.132 375.734 259.398 376.58C259.672 377.42 259.809 378.374 259.809 379.441ZM257.943 380.34V379.422C257.943 378.576 257.855 377.827 257.68 377.176C257.51 376.525 257.26 375.978 256.928 375.535C256.596 375.092 256.189 374.757 255.707 374.529C255.232 374.301 254.691 374.188 254.086 374.188C253.5 374.188 252.969 374.301 252.494 374.529C252.025 374.757 251.622 375.092 251.283 375.535C250.951 375.978 250.694 376.525 250.512 377.176C250.329 377.827 250.238 378.576 250.238 379.422V380.34C250.238 381.193 250.329 381.948 250.512 382.605C250.694 383.257 250.954 383.807 251.293 384.256C251.638 384.699 252.045 385.034 252.514 385.262C252.989 385.49 253.52 385.604 254.105 385.604C254.717 385.604 255.261 385.49 255.736 385.262C256.212 385.034 256.612 384.699 256.938 384.256C257.27 383.807 257.52 383.257 257.689 382.605C257.859 381.948 257.943 381.193 257.943 380.34Z" fill="black"/>
</svg>
