<svg width="498" height="199" viewBox="0 0 498 199" fill="none" xmlns="http://www.w3.org/2000/svg">
<path d="M151.953 197H124.023V97C124.023 95.0469 123.633 93.224 122.852 91.5312C122.135 89.8385 121.126 88.3737 119.824 87.1367C118.587 85.8346 117.122 84.8255 115.43 84.1094C113.737 83.3932 111.914 83.0352 109.961 83.0352C108.008 83.0352 106.185 83.3932 104.492 84.1094C102.799 84.8255 101.302 85.8346 100 87.1367C98.763 88.3737 97.7865 89.8385 97.0703 91.5312C96.3542 93.224 95.9961 95.0469 95.9961 97V197H67.9688V97C67.9688 95.0469 67.6107 93.224 66.8945 91.5312C66.1784 89.8385 65.1693 88.3737 63.8672 87.1367C62.6302 85.8346 61.1654 84.8255 59.4727 84.1094C57.7799 83.3932 55.957 83.0352 54.0039 83.0352C52.0508 83.0352 50.2279 83.3932 48.5352 84.1094C46.8424 84.8255 45.3451 85.8346 44.043 87.1367C42.806 88.3737 41.8294 89.8385 41.1133 91.5312C40.3971 93.224 40.0391 95.0469 40.0391 97V197H12.0117V97C12.0117 91.2057 13.0859 85.7695 15.2344 80.6914C17.4479 75.5482 20.4427 71.0885 24.2188 67.3125C28.0599 63.4714 32.5195 60.4766 37.5977 58.3281C42.7409 56.1146 48.2096 55.0078 54.0039 55.0078C59.2122 55.0078 64.2253 55.9518 69.043 57.8398C73.8607 59.6628 78.1901 62.332 82.0312 65.8477C85.8724 62.332 90.1693 59.6628 94.9219 57.8398C99.7396 55.9518 104.753 55.0078 109.961 55.0078C115.755 55.0078 121.191 56.1146 126.27 58.3281C131.413 60.4766 135.872 63.4714 139.648 67.3125C143.49 71.0885 146.484 75.5482 148.633 80.6914C150.846 85.7695 151.953 91.2057 151.953 97V197ZM205.664 63.9922C205.664 66.4661 205.176 68.7773 204.199 70.9258C203.288 73.0742 202.018 74.9622 200.391 76.5898C198.763 78.1523 196.842 79.4219 194.629 80.3984C192.48 81.3099 190.169 81.7656 187.695 81.7656C185.221 81.7656 182.878 81.3099 180.664 80.3984C178.516 79.4219 176.628 78.1523 175 76.5898C173.438 74.9622 172.168 73.0742 171.191 70.9258C170.28 68.7773 169.824 66.4661 169.824 63.9922C169.824 61.5833 170.28 59.3047 171.191 57.1562C172.168 54.9427 173.438 53.0547 175 51.4922C176.628 49.8646 178.516 48.5951 180.664 47.6836C182.878 46.707 185.221 46.2188 187.695 46.2188C190.169 46.2188 192.48 46.707 194.629 47.6836C196.842 48.5951 198.763 49.8646 200.391 51.4922C202.018 53.0547 203.288 54.9427 204.199 57.1562C205.176 59.3047 205.664 61.5833 205.664 63.9922ZM201.074 197H174.219V92.4102H201.074V197ZM306.738 141.043V113.016C306.738 109.174 305.99 105.561 304.492 102.176C303.06 98.7253 301.074 95.7305 298.535 93.1914C295.996 90.6523 293.001 88.6667 289.551 87.2344C286.165 85.737 282.552 84.9883 278.711 84.9883C274.87 84.9883 271.224 85.737 267.773 87.2344C264.388 88.6667 261.426 90.6523 258.887 93.1914C256.348 95.7305 254.329 98.7253 252.832 102.176C251.4 105.561 250.684 109.174 250.684 113.016V141.043H306.738ZM334.766 197H306.738V168.973H250.684V197H222.754V113.016C222.754 105.268 224.219 98.0091 227.148 91.2383C230.078 84.4023 234.049 78.4453 239.062 73.3672C244.141 68.2891 250.065 64.2852 256.836 61.3555C263.672 58.4258 270.964 56.9609 278.711 56.9609C286.458 56.9609 293.717 58.4258 300.488 61.3555C307.324 64.2852 313.281 68.2891 318.359 73.3672C323.438 78.4453 327.441 84.4023 330.371 91.2383C333.301 98.0091 334.766 105.268 334.766 113.016V197ZM432.129 184.793C429.98 186.746 427.669 188.602 425.195 190.359C422.786 192.052 420.247 193.549 417.578 194.852C414.909 196.089 412.142 197.065 409.277 197.781C406.478 198.562 403.613 198.953 400.684 198.953C394.238 198.953 388.184 197.814 382.52 195.535C376.855 193.257 371.875 190.034 367.578 185.867C363.346 181.635 359.993 176.525 357.52 170.535C355.111 164.48 353.906 157.71 353.906 150.223V92.4102H380.469V150.223C380.469 153.738 380.99 156.896 382.031 159.695C383.138 162.43 384.603 164.741 386.426 166.629C388.249 168.517 390.365 169.949 392.773 170.926C395.247 171.902 397.884 172.391 400.684 172.391C403.418 172.391 405.99 171.772 408.398 170.535C410.872 169.233 413.021 167.54 414.844 165.457C416.667 163.374 418.099 161.03 419.141 158.426C420.182 155.757 420.703 153.022 420.703 150.223V92.4102H447.363V197H440.918L432.129 184.793Z" fill="black"/>
</svg>
